G04 EAGLE Gerber RS-274X export*
G75*
%MOMM*%
%FSLAX34Y34*%
%LPD*%
%INCopper Layer 2*%
%IPPOS*%
%AMOC8*
5,1,8,0,0,1.08239X$1,22.5*%
G01*
%ADD10C,1.244600*%
%ADD11C,1.960000*%
%ADD12C,1.422400*%
%ADD13C,1.680000*%
%ADD14C,4.191000*%
%ADD15C,0.609600*%

G36*
X1012109Y2556D02*
X1012109Y2556D01*
X1012227Y2563D01*
X1012266Y2575D01*
X1012306Y2581D01*
X1012417Y2624D01*
X1012530Y2661D01*
X1012564Y2683D01*
X1012602Y2698D01*
X1012698Y2767D01*
X1012799Y2831D01*
X1012826Y2861D01*
X1012859Y2884D01*
X1012935Y2976D01*
X1013017Y3063D01*
X1013036Y3098D01*
X1013062Y3129D01*
X1013113Y3237D01*
X1013170Y3341D01*
X1013180Y3381D01*
X1013198Y3417D01*
X1013220Y3534D01*
X1013250Y3649D01*
X1013253Y3709D01*
X1013257Y3729D01*
X1013256Y3750D01*
X1013260Y3810D01*
X1013359Y631190D01*
X1013344Y631308D01*
X1013336Y631427D01*
X1013324Y631465D01*
X1013319Y631505D01*
X1013275Y631616D01*
X1013238Y631729D01*
X1013217Y631764D01*
X1013202Y631801D01*
X1013132Y631897D01*
X1013068Y631998D01*
X1013039Y632026D01*
X1013015Y632058D01*
X1012923Y632135D01*
X1012837Y632216D01*
X1012801Y632236D01*
X1012770Y632261D01*
X1012662Y632312D01*
X1012558Y632370D01*
X1012519Y632380D01*
X1012482Y632397D01*
X1012365Y632419D01*
X1012250Y632449D01*
X1012190Y632453D01*
X1012170Y632457D01*
X1012150Y632455D01*
X1012089Y632459D01*
X209045Y632459D01*
X208995Y632453D01*
X208946Y632455D01*
X208838Y632433D01*
X208729Y632419D01*
X208683Y632401D01*
X208634Y632391D01*
X208536Y632343D01*
X208434Y632302D01*
X208394Y632273D01*
X208349Y632251D01*
X208265Y632180D01*
X208176Y632116D01*
X208145Y632077D01*
X208107Y632045D01*
X208044Y631955D01*
X207973Y631871D01*
X207952Y631826D01*
X207924Y631785D01*
X207885Y631682D01*
X207838Y631583D01*
X207829Y631534D01*
X207811Y631488D01*
X207799Y631378D01*
X207778Y631271D01*
X207781Y631221D01*
X207776Y631172D01*
X207791Y631063D01*
X207798Y630953D01*
X207813Y630906D01*
X207820Y630857D01*
X207872Y630704D01*
X208789Y628492D01*
X208789Y626268D01*
X207938Y624214D01*
X206366Y622642D01*
X204312Y621791D01*
X202088Y621791D01*
X200034Y622642D01*
X198462Y624214D01*
X197611Y626268D01*
X197611Y628492D01*
X198528Y630704D01*
X198541Y630752D01*
X198562Y630797D01*
X198583Y630905D01*
X198612Y631011D01*
X198612Y631061D01*
X198622Y631110D01*
X198615Y631219D01*
X198617Y631329D01*
X198605Y631377D01*
X198602Y631427D01*
X198568Y631531D01*
X198543Y631638D01*
X198519Y631682D01*
X198504Y631729D01*
X198445Y631822D01*
X198394Y631919D01*
X198361Y631956D01*
X198334Y631998D01*
X198254Y632073D01*
X198180Y632155D01*
X198138Y632182D01*
X198102Y632216D01*
X198006Y632269D01*
X197914Y632329D01*
X197867Y632346D01*
X197824Y632370D01*
X197717Y632397D01*
X197613Y632433D01*
X197564Y632437D01*
X197516Y632449D01*
X197355Y632459D01*
X186185Y632459D01*
X186135Y632453D01*
X186086Y632455D01*
X185978Y632433D01*
X185869Y632419D01*
X185823Y632401D01*
X185774Y632391D01*
X185676Y632343D01*
X185574Y632302D01*
X185534Y632273D01*
X185489Y632251D01*
X185405Y632180D01*
X185316Y632116D01*
X185285Y632077D01*
X185247Y632045D01*
X185184Y631955D01*
X185113Y631871D01*
X185092Y631826D01*
X185064Y631785D01*
X185025Y631682D01*
X184978Y631583D01*
X184969Y631534D01*
X184951Y631488D01*
X184939Y631378D01*
X184918Y631271D01*
X184921Y631221D01*
X184916Y631172D01*
X184931Y631063D01*
X184938Y630953D01*
X184953Y630906D01*
X184960Y630857D01*
X185012Y630704D01*
X185929Y628492D01*
X185929Y626268D01*
X185078Y624214D01*
X183506Y622642D01*
X181452Y621791D01*
X179228Y621791D01*
X177174Y622642D01*
X175602Y624214D01*
X174751Y626268D01*
X174751Y628492D01*
X175668Y630704D01*
X175681Y630752D01*
X175702Y630797D01*
X175723Y630905D01*
X175752Y631011D01*
X175752Y631061D01*
X175762Y631110D01*
X175755Y631219D01*
X175757Y631329D01*
X175745Y631377D01*
X175742Y631427D01*
X175708Y631531D01*
X175683Y631638D01*
X175659Y631682D01*
X175644Y631729D01*
X175585Y631822D01*
X175534Y631919D01*
X175501Y631956D01*
X175474Y631998D01*
X175394Y632073D01*
X175320Y632155D01*
X175278Y632182D01*
X175242Y632216D01*
X175146Y632269D01*
X175054Y632329D01*
X175007Y632346D01*
X174964Y632370D01*
X174857Y632397D01*
X174753Y632433D01*
X174704Y632437D01*
X174656Y632449D01*
X174495Y632459D01*
X3909Y632459D01*
X3791Y632444D01*
X3673Y632437D01*
X3634Y632425D01*
X3594Y632419D01*
X3483Y632376D01*
X3370Y632339D01*
X3336Y632317D01*
X3298Y632302D01*
X3202Y632233D01*
X3101Y632169D01*
X3074Y632139D01*
X3041Y632116D01*
X2965Y632024D01*
X2883Y631937D01*
X2864Y631902D01*
X2838Y631871D01*
X2787Y631763D01*
X2730Y631659D01*
X2720Y631619D01*
X2702Y631583D01*
X2680Y631466D01*
X2650Y631351D01*
X2647Y631291D01*
X2643Y631271D01*
X2644Y631250D01*
X2640Y631190D01*
X2541Y3810D01*
X2556Y3692D01*
X2564Y3573D01*
X2576Y3535D01*
X2581Y3495D01*
X2625Y3384D01*
X2662Y3271D01*
X2683Y3236D01*
X2698Y3199D01*
X2768Y3103D01*
X2832Y3002D01*
X2861Y2974D01*
X2885Y2942D01*
X2977Y2865D01*
X3063Y2784D01*
X3099Y2764D01*
X3130Y2739D01*
X3238Y2688D01*
X3342Y2630D01*
X3381Y2620D01*
X3418Y2603D01*
X3535Y2581D01*
X3650Y2551D01*
X3710Y2547D01*
X3730Y2543D01*
X3750Y2545D01*
X3811Y2541D01*
X1011991Y2541D01*
X1012109Y2556D01*
G37*
%LPC*%
G36*
X987724Y113359D02*
X987724Y113359D01*
X983703Y115025D01*
X980625Y118103D01*
X978959Y122124D01*
X978959Y126476D01*
X980625Y130497D01*
X983703Y133575D01*
X983829Y133627D01*
X983949Y133696D01*
X984072Y133761D01*
X984087Y133775D01*
X984105Y133785D01*
X984205Y133882D01*
X984308Y133975D01*
X984319Y133992D01*
X984333Y134006D01*
X984406Y134125D01*
X984482Y134241D01*
X984489Y134260D01*
X984500Y134277D01*
X984540Y134410D01*
X984586Y134542D01*
X984587Y134562D01*
X984593Y134581D01*
X984600Y134720D01*
X984611Y134859D01*
X984607Y134879D01*
X984608Y134899D01*
X984580Y135035D01*
X984556Y135172D01*
X984548Y135191D01*
X984544Y135210D01*
X984483Y135335D01*
X984426Y135462D01*
X984413Y135478D01*
X984404Y135496D01*
X984314Y135602D01*
X984227Y135711D01*
X984211Y135723D01*
X984198Y135738D01*
X984084Y135818D01*
X983973Y135902D01*
X983948Y135914D01*
X983938Y135921D01*
X983919Y135928D01*
X983829Y135973D01*
X983703Y136025D01*
X980625Y139103D01*
X978959Y143124D01*
X978959Y147476D01*
X980625Y151497D01*
X983703Y154575D01*
X983829Y154627D01*
X983949Y154696D01*
X984072Y154761D01*
X984087Y154775D01*
X984105Y154785D01*
X984205Y154882D01*
X984308Y154975D01*
X984319Y154992D01*
X984333Y155006D01*
X984406Y155125D01*
X984482Y155241D01*
X984489Y155260D01*
X984500Y155277D01*
X984540Y155410D01*
X984586Y155542D01*
X984587Y155562D01*
X984593Y155581D01*
X984600Y155720D01*
X984611Y155859D01*
X984607Y155879D01*
X984608Y155899D01*
X984580Y156035D01*
X984556Y156172D01*
X984548Y156191D01*
X984544Y156210D01*
X984483Y156335D01*
X984426Y156462D01*
X984413Y156478D01*
X984404Y156496D01*
X984314Y156602D01*
X984227Y156711D01*
X984211Y156723D01*
X984198Y156738D01*
X984084Y156818D01*
X983973Y156902D01*
X983948Y156914D01*
X983938Y156921D01*
X983919Y156928D01*
X983829Y156973D01*
X983703Y157025D01*
X980625Y160103D01*
X978959Y164124D01*
X978959Y168476D01*
X980625Y172497D01*
X983703Y175575D01*
X983829Y175627D01*
X983949Y175696D01*
X984072Y175761D01*
X984087Y175775D01*
X984105Y175785D01*
X984205Y175882D01*
X984308Y175975D01*
X984319Y175992D01*
X984333Y176006D01*
X984406Y176125D01*
X984482Y176241D01*
X984489Y176260D01*
X984500Y176277D01*
X984540Y176410D01*
X984586Y176542D01*
X984587Y176562D01*
X984593Y176581D01*
X984600Y176720D01*
X984611Y176859D01*
X984607Y176879D01*
X984608Y176899D01*
X984580Y177035D01*
X984556Y177172D01*
X984548Y177191D01*
X984544Y177210D01*
X984483Y177335D01*
X984426Y177462D01*
X984413Y177478D01*
X984404Y177496D01*
X984314Y177602D01*
X984227Y177711D01*
X984211Y177723D01*
X984198Y177738D01*
X984084Y177818D01*
X983973Y177902D01*
X983948Y177914D01*
X983938Y177921D01*
X983919Y177928D01*
X983829Y177973D01*
X983703Y178025D01*
X980625Y181103D01*
X978959Y185124D01*
X978959Y189476D01*
X980625Y193497D01*
X983703Y196575D01*
X983829Y196627D01*
X983949Y196696D01*
X984072Y196761D01*
X984087Y196775D01*
X984105Y196785D01*
X984205Y196882D01*
X984308Y196975D01*
X984319Y196992D01*
X984333Y197006D01*
X984406Y197125D01*
X984482Y197241D01*
X984489Y197260D01*
X984500Y197277D01*
X984540Y197410D01*
X984586Y197542D01*
X984587Y197562D01*
X984593Y197581D01*
X984600Y197720D01*
X984611Y197859D01*
X984607Y197879D01*
X984608Y197899D01*
X984580Y198035D01*
X984556Y198172D01*
X984548Y198191D01*
X984544Y198210D01*
X984483Y198335D01*
X984426Y198462D01*
X984413Y198478D01*
X984404Y198496D01*
X984314Y198602D01*
X984227Y198711D01*
X984211Y198723D01*
X984198Y198738D01*
X984084Y198818D01*
X983973Y198902D01*
X983948Y198914D01*
X983938Y198921D01*
X983919Y198928D01*
X983829Y198973D01*
X983703Y199025D01*
X980625Y202103D01*
X978959Y206124D01*
X978959Y210476D01*
X980625Y214497D01*
X983703Y217575D01*
X983829Y217627D01*
X983949Y217696D01*
X984072Y217761D01*
X984087Y217775D01*
X984105Y217785D01*
X984205Y217882D01*
X984308Y217975D01*
X984319Y217992D01*
X984333Y218006D01*
X984406Y218125D01*
X984482Y218241D01*
X984489Y218260D01*
X984500Y218277D01*
X984540Y218410D01*
X984586Y218542D01*
X984587Y218562D01*
X984593Y218581D01*
X984600Y218720D01*
X984611Y218859D01*
X984607Y218879D01*
X984608Y218899D01*
X984580Y219035D01*
X984556Y219172D01*
X984548Y219191D01*
X984544Y219210D01*
X984483Y219335D01*
X984426Y219462D01*
X984413Y219478D01*
X984404Y219496D01*
X984314Y219602D01*
X984227Y219711D01*
X984211Y219723D01*
X984198Y219738D01*
X984084Y219818D01*
X983973Y219902D01*
X983948Y219914D01*
X983938Y219921D01*
X983919Y219928D01*
X983829Y219973D01*
X983703Y220025D01*
X980625Y223103D01*
X978959Y227124D01*
X978959Y231476D01*
X980625Y235497D01*
X983703Y238575D01*
X987724Y240241D01*
X992076Y240241D01*
X996097Y238575D01*
X999175Y235497D01*
X1000841Y231476D01*
X1000841Y227124D01*
X999175Y223103D01*
X996097Y220025D01*
X995971Y219973D01*
X995851Y219904D01*
X995728Y219839D01*
X995713Y219825D01*
X995695Y219815D01*
X995595Y219718D01*
X995492Y219625D01*
X995481Y219608D01*
X995467Y219594D01*
X995394Y219475D01*
X995318Y219359D01*
X995311Y219340D01*
X995300Y219323D01*
X995259Y219190D01*
X995214Y219058D01*
X995213Y219038D01*
X995207Y219019D01*
X995200Y218880D01*
X995189Y218741D01*
X995193Y218721D01*
X995192Y218701D01*
X995220Y218565D01*
X995244Y218428D01*
X995252Y218409D01*
X995256Y218390D01*
X995317Y218265D01*
X995374Y218138D01*
X995387Y218122D01*
X995396Y218104D01*
X995486Y217998D01*
X995573Y217890D01*
X995589Y217877D01*
X995602Y217862D01*
X995716Y217782D01*
X995827Y217698D01*
X995852Y217686D01*
X995862Y217679D01*
X995881Y217672D01*
X995971Y217627D01*
X996097Y217575D01*
X999175Y214497D01*
X1000841Y210476D01*
X1000841Y206124D01*
X999175Y202103D01*
X996097Y199025D01*
X995971Y198973D01*
X995851Y198904D01*
X995728Y198839D01*
X995713Y198825D01*
X995695Y198815D01*
X995595Y198718D01*
X995492Y198625D01*
X995481Y198608D01*
X995467Y198594D01*
X995394Y198475D01*
X995318Y198359D01*
X995311Y198340D01*
X995300Y198323D01*
X995259Y198190D01*
X995214Y198058D01*
X995213Y198038D01*
X995207Y198019D01*
X995200Y197880D01*
X995189Y197741D01*
X995193Y197721D01*
X995192Y197701D01*
X995220Y197565D01*
X995244Y197428D01*
X995252Y197409D01*
X995256Y197390D01*
X995317Y197265D01*
X995374Y197138D01*
X995387Y197122D01*
X995396Y197104D01*
X995486Y196998D01*
X995573Y196890D01*
X995589Y196877D01*
X995602Y196862D01*
X995716Y196782D01*
X995827Y196698D01*
X995852Y196686D01*
X995862Y196679D01*
X995881Y196672D01*
X995971Y196627D01*
X996097Y196575D01*
X999175Y193497D01*
X1000841Y189476D01*
X1000841Y185124D01*
X999175Y181103D01*
X996097Y178025D01*
X995971Y177973D01*
X995851Y177904D01*
X995728Y177839D01*
X995713Y177825D01*
X995695Y177815D01*
X995595Y177718D01*
X995492Y177625D01*
X995481Y177608D01*
X995467Y177594D01*
X995394Y177475D01*
X995318Y177359D01*
X995311Y177340D01*
X995300Y177323D01*
X995259Y177190D01*
X995214Y177058D01*
X995213Y177038D01*
X995207Y177019D01*
X995200Y176880D01*
X995189Y176741D01*
X995193Y176721D01*
X995192Y176701D01*
X995220Y176565D01*
X995244Y176428D01*
X995252Y176409D01*
X995256Y176390D01*
X995317Y176264D01*
X995374Y176138D01*
X995387Y176122D01*
X995396Y176104D01*
X995486Y175998D01*
X995573Y175890D01*
X995589Y175877D01*
X995602Y175862D01*
X995716Y175782D01*
X995827Y175698D01*
X995852Y175686D01*
X995862Y175679D01*
X995881Y175672D01*
X995971Y175627D01*
X996097Y175575D01*
X999175Y172497D01*
X1000841Y168476D01*
X1000841Y164124D01*
X999175Y160103D01*
X996097Y157025D01*
X995971Y156973D01*
X995851Y156904D01*
X995728Y156839D01*
X995713Y156825D01*
X995695Y156815D01*
X995595Y156718D01*
X995492Y156625D01*
X995481Y156608D01*
X995467Y156594D01*
X995394Y156475D01*
X995318Y156359D01*
X995311Y156340D01*
X995300Y156323D01*
X995259Y156190D01*
X995214Y156058D01*
X995213Y156038D01*
X995207Y156019D01*
X995200Y155880D01*
X995189Y155741D01*
X995193Y155721D01*
X995192Y155701D01*
X995220Y155565D01*
X995244Y155428D01*
X995252Y155409D01*
X995256Y155390D01*
X995317Y155265D01*
X995374Y155138D01*
X995387Y155122D01*
X995396Y155104D01*
X995486Y154998D01*
X995573Y154890D01*
X995589Y154877D01*
X995602Y154862D01*
X995716Y154782D01*
X995827Y154698D01*
X995852Y154686D01*
X995862Y154679D01*
X995881Y154672D01*
X995971Y154627D01*
X996097Y154575D01*
X999175Y151497D01*
X1000841Y147476D01*
X1000841Y143124D01*
X999175Y139103D01*
X996097Y136025D01*
X995971Y135973D01*
X995851Y135904D01*
X995728Y135839D01*
X995713Y135825D01*
X995695Y135815D01*
X995595Y135718D01*
X995492Y135625D01*
X995481Y135608D01*
X995467Y135594D01*
X995394Y135475D01*
X995318Y135359D01*
X995311Y135340D01*
X995300Y135323D01*
X995259Y135190D01*
X995214Y135058D01*
X995213Y135038D01*
X995207Y135019D01*
X995200Y134880D01*
X995189Y134741D01*
X995193Y134721D01*
X995192Y134701D01*
X995220Y134565D01*
X995244Y134428D01*
X995252Y134409D01*
X995256Y134390D01*
X995317Y134265D01*
X995374Y134138D01*
X995387Y134122D01*
X995396Y134104D01*
X995486Y133998D01*
X995573Y133890D01*
X995589Y133877D01*
X995602Y133862D01*
X995716Y133782D01*
X995827Y133698D01*
X995852Y133686D01*
X995862Y133679D01*
X995881Y133672D01*
X995971Y133627D01*
X996097Y133575D01*
X999175Y130497D01*
X1000841Y126476D01*
X1000841Y122124D01*
X999175Y118103D01*
X996097Y115025D01*
X992076Y113359D01*
X987724Y113359D01*
G37*
%LPD*%
%LPC*%
G36*
X973226Y573404D02*
X973226Y573404D01*
X964591Y576981D01*
X957981Y583591D01*
X954404Y592226D01*
X954404Y601574D01*
X957981Y610209D01*
X964591Y616819D01*
X973226Y620396D01*
X982574Y620396D01*
X991209Y616819D01*
X997819Y610209D01*
X1001396Y601574D01*
X1001396Y592226D01*
X997819Y583591D01*
X991209Y576981D01*
X982574Y573404D01*
X973226Y573404D01*
G37*
%LPD*%
%LPC*%
G36*
X33426Y573404D02*
X33426Y573404D01*
X24791Y576981D01*
X18181Y583591D01*
X14604Y592226D01*
X14604Y601574D01*
X18181Y610209D01*
X24791Y616819D01*
X33426Y620396D01*
X42774Y620396D01*
X51409Y616819D01*
X58019Y610209D01*
X61596Y601574D01*
X61596Y592226D01*
X58019Y583591D01*
X51409Y576981D01*
X42774Y573404D01*
X33426Y573404D01*
G37*
%LPD*%
%LPC*%
G36*
X973226Y14604D02*
X973226Y14604D01*
X964591Y18181D01*
X957981Y24791D01*
X954404Y33426D01*
X954404Y42774D01*
X957981Y51409D01*
X964591Y58019D01*
X973226Y61596D01*
X982574Y61596D01*
X991209Y58019D01*
X997819Y51409D01*
X1001396Y42774D01*
X1001396Y33426D01*
X997819Y24791D01*
X991209Y18181D01*
X982574Y14604D01*
X973226Y14604D01*
G37*
%LPD*%
%LPC*%
G36*
X33426Y14604D02*
X33426Y14604D01*
X24791Y18181D01*
X18181Y24791D01*
X14604Y33426D01*
X14604Y42774D01*
X18181Y51409D01*
X24791Y58019D01*
X33426Y61596D01*
X42774Y61596D01*
X51409Y58019D01*
X58019Y51409D01*
X61596Y42774D01*
X61596Y33426D01*
X58019Y24791D01*
X51409Y18181D01*
X42774Y14604D01*
X33426Y14604D01*
G37*
%LPD*%
%LPC*%
G36*
X539795Y584359D02*
X539795Y584359D01*
X535186Y586268D01*
X531658Y589796D01*
X529749Y594405D01*
X529749Y599395D01*
X531658Y604004D01*
X535186Y607532D01*
X539795Y609441D01*
X544785Y609441D01*
X549394Y607532D01*
X552922Y604004D01*
X554831Y599395D01*
X554831Y594405D01*
X552922Y589796D01*
X549394Y586268D01*
X544785Y584359D01*
X539795Y584359D01*
G37*
%LPD*%
%LPC*%
G36*
X102915Y584359D02*
X102915Y584359D01*
X98306Y586268D01*
X94778Y589796D01*
X92869Y594405D01*
X92869Y599395D01*
X94778Y604004D01*
X98306Y607532D01*
X102915Y609441D01*
X107905Y609441D01*
X112514Y607532D01*
X116042Y604004D01*
X117951Y599395D01*
X117951Y594405D01*
X116042Y589796D01*
X112514Y586268D01*
X107905Y584359D01*
X102915Y584359D01*
G37*
%LPD*%
%LPC*%
G36*
X539795Y355759D02*
X539795Y355759D01*
X535186Y357668D01*
X531658Y361196D01*
X529749Y365805D01*
X529749Y370795D01*
X531658Y375404D01*
X535186Y378932D01*
X539795Y380841D01*
X544785Y380841D01*
X549394Y378932D01*
X552922Y375404D01*
X554831Y370795D01*
X554831Y365805D01*
X552922Y361196D01*
X549394Y357668D01*
X544785Y355759D01*
X539795Y355759D01*
G37*
%LPD*%
%LPC*%
G36*
X102915Y355759D02*
X102915Y355759D01*
X98306Y357668D01*
X94778Y361196D01*
X92869Y365805D01*
X92869Y370795D01*
X94778Y375404D01*
X98306Y378932D01*
X102915Y380841D01*
X107905Y380841D01*
X112514Y378932D01*
X116042Y375404D01*
X117951Y370795D01*
X117951Y365805D01*
X116042Y361196D01*
X112514Y357668D01*
X107905Y355759D01*
X102915Y355759D01*
G37*
%LPD*%
%LPC*%
G36*
X402945Y393659D02*
X402945Y393659D01*
X398410Y395538D01*
X394938Y399010D01*
X393059Y403545D01*
X393059Y408455D01*
X394938Y412990D01*
X398410Y416462D01*
X402945Y418341D01*
X407855Y418341D01*
X412390Y416462D01*
X415862Y412990D01*
X417741Y408455D01*
X417741Y403545D01*
X415862Y399010D01*
X412390Y395538D01*
X407855Y393659D01*
X402945Y393659D01*
G37*
%LPD*%
%LPC*%
G36*
X277945Y393659D02*
X277945Y393659D01*
X273410Y395538D01*
X269938Y399010D01*
X268059Y403545D01*
X268059Y408455D01*
X269938Y412990D01*
X273410Y416462D01*
X277945Y418341D01*
X282855Y418341D01*
X287390Y416462D01*
X290862Y412990D01*
X292741Y408455D01*
X292741Y403545D01*
X290862Y399010D01*
X287390Y395538D01*
X282855Y393659D01*
X277945Y393659D01*
G37*
%LPD*%
%LPC*%
G36*
X100624Y154159D02*
X100624Y154159D01*
X96603Y155825D01*
X93525Y158903D01*
X91859Y162924D01*
X91859Y167276D01*
X93525Y171297D01*
X96603Y174375D01*
X100624Y176041D01*
X104976Y176041D01*
X108997Y174375D01*
X112075Y171297D01*
X113741Y167276D01*
X113741Y162924D01*
X112075Y158903D01*
X108997Y155825D01*
X104976Y154159D01*
X100624Y154159D01*
G37*
%LPD*%
%LPC*%
G36*
X430824Y154159D02*
X430824Y154159D01*
X426803Y155825D01*
X423725Y158903D01*
X422059Y162924D01*
X422059Y167276D01*
X423725Y171297D01*
X426803Y174375D01*
X430824Y176041D01*
X435176Y176041D01*
X439197Y174375D01*
X442275Y171297D01*
X443941Y167276D01*
X443941Y162924D01*
X442275Y158903D01*
X439197Y155825D01*
X435176Y154159D01*
X430824Y154159D01*
G37*
%LPD*%
%LPC*%
G36*
X761024Y154159D02*
X761024Y154159D01*
X757003Y155825D01*
X753925Y158903D01*
X752259Y162924D01*
X752259Y167276D01*
X753925Y171297D01*
X757003Y174375D01*
X761024Y176041D01*
X765376Y176041D01*
X769397Y174375D01*
X772475Y171297D01*
X774141Y167276D01*
X774141Y162924D01*
X772475Y158903D01*
X769397Y155825D01*
X765376Y154159D01*
X761024Y154159D01*
G37*
%LPD*%
%LPC*%
G36*
X362570Y587247D02*
X362570Y587247D01*
X359022Y588717D01*
X356307Y591432D01*
X354837Y594980D01*
X354837Y598820D01*
X356307Y602368D01*
X359022Y605083D01*
X362570Y606553D01*
X366410Y606553D01*
X369958Y605083D01*
X372673Y602368D01*
X374143Y598820D01*
X374143Y594980D01*
X372673Y591432D01*
X369958Y588717D01*
X366410Y587247D01*
X362570Y587247D01*
G37*
%LPD*%
%LPC*%
G36*
X311770Y587247D02*
X311770Y587247D01*
X308222Y588717D01*
X305507Y591432D01*
X304037Y594980D01*
X304037Y598820D01*
X305507Y602368D01*
X308222Y605083D01*
X311770Y606553D01*
X315610Y606553D01*
X319158Y605083D01*
X321873Y602368D01*
X323343Y598820D01*
X323343Y594980D01*
X321873Y591432D01*
X319158Y588717D01*
X315610Y587247D01*
X311770Y587247D01*
G37*
%LPD*%
%LPC*%
G36*
X286370Y587247D02*
X286370Y587247D01*
X282822Y588717D01*
X280107Y591432D01*
X278637Y594980D01*
X278637Y598820D01*
X280107Y602368D01*
X282822Y605083D01*
X286370Y606553D01*
X290210Y606553D01*
X293758Y605083D01*
X296473Y602368D01*
X297943Y598820D01*
X297943Y594980D01*
X296473Y591432D01*
X293758Y588717D01*
X290210Y587247D01*
X286370Y587247D01*
G37*
%LPD*%
%LPC*%
G36*
X840857Y255136D02*
X840857Y255136D01*
X837636Y256470D01*
X835170Y258936D01*
X833836Y262157D01*
X833836Y265643D01*
X835170Y268864D01*
X837636Y271330D01*
X840857Y272664D01*
X844343Y272664D01*
X847564Y271330D01*
X850030Y268864D01*
X851364Y265643D01*
X851364Y262157D01*
X850030Y258936D01*
X847564Y256470D01*
X844343Y255136D01*
X840857Y255136D01*
G37*
%LPD*%
%LPC*%
G36*
X815457Y255136D02*
X815457Y255136D01*
X812236Y256470D01*
X809770Y258936D01*
X808436Y262157D01*
X808436Y265643D01*
X809770Y268864D01*
X812236Y271330D01*
X815457Y272664D01*
X818943Y272664D01*
X822164Y271330D01*
X824630Y268864D01*
X825964Y265643D01*
X825964Y262157D01*
X824630Y258936D01*
X822164Y256470D01*
X818943Y255136D01*
X815457Y255136D01*
G37*
%LPD*%
%LPC*%
G36*
X790057Y255136D02*
X790057Y255136D01*
X786836Y256470D01*
X784370Y258936D01*
X783036Y262157D01*
X783036Y265643D01*
X784370Y268864D01*
X786836Y271330D01*
X790057Y272664D01*
X793543Y272664D01*
X796764Y271330D01*
X799230Y268864D01*
X800564Y265643D01*
X800564Y262157D01*
X799230Y258936D01*
X796764Y256470D01*
X793543Y255136D01*
X790057Y255136D01*
G37*
%LPD*%
%LPC*%
G36*
X764657Y255136D02*
X764657Y255136D01*
X761436Y256470D01*
X758970Y258936D01*
X757636Y262157D01*
X757636Y265643D01*
X758970Y268864D01*
X761436Y271330D01*
X764657Y272664D01*
X768143Y272664D01*
X771364Y271330D01*
X773830Y268864D01*
X775164Y265643D01*
X775164Y262157D01*
X773830Y258936D01*
X771364Y256470D01*
X768143Y255136D01*
X764657Y255136D01*
G37*
%LPD*%
%LPC*%
G36*
X739257Y255136D02*
X739257Y255136D01*
X736036Y256470D01*
X733570Y258936D01*
X732236Y262157D01*
X732236Y265643D01*
X733570Y268864D01*
X736036Y271330D01*
X739257Y272664D01*
X742743Y272664D01*
X745964Y271330D01*
X748430Y268864D01*
X749764Y265643D01*
X749764Y262157D01*
X748430Y258936D01*
X745964Y256470D01*
X742743Y255136D01*
X739257Y255136D01*
G37*
%LPD*%
%LPC*%
G36*
X536057Y534536D02*
X536057Y534536D01*
X532836Y535870D01*
X530370Y538336D01*
X529036Y541557D01*
X529036Y545043D01*
X530370Y548264D01*
X532836Y550730D01*
X536057Y552064D01*
X539543Y552064D01*
X542764Y550730D01*
X545230Y548264D01*
X546564Y545043D01*
X546564Y541557D01*
X545230Y538336D01*
X542764Y535870D01*
X539543Y534536D01*
X536057Y534536D01*
G37*
%LPD*%
%LPC*%
G36*
X510657Y534536D02*
X510657Y534536D01*
X507436Y535870D01*
X504970Y538336D01*
X503636Y541557D01*
X503636Y545043D01*
X504970Y548264D01*
X507436Y550730D01*
X510657Y552064D01*
X514143Y552064D01*
X517364Y550730D01*
X519830Y548264D01*
X521164Y545043D01*
X521164Y541557D01*
X519830Y538336D01*
X517364Y535870D01*
X514143Y534536D01*
X510657Y534536D01*
G37*
%LPD*%
%LPC*%
G36*
X942457Y534536D02*
X942457Y534536D01*
X939236Y535870D01*
X936770Y538336D01*
X935436Y541557D01*
X935436Y545043D01*
X936770Y548264D01*
X939236Y550730D01*
X942457Y552064D01*
X945943Y552064D01*
X949164Y550730D01*
X951630Y548264D01*
X952964Y545043D01*
X952964Y541557D01*
X951630Y538336D01*
X949164Y535870D01*
X945943Y534536D01*
X942457Y534536D01*
G37*
%LPD*%
%LPC*%
G36*
X917057Y534536D02*
X917057Y534536D01*
X913836Y535870D01*
X911370Y538336D01*
X910036Y541557D01*
X910036Y545043D01*
X911370Y548264D01*
X913836Y550730D01*
X917057Y552064D01*
X920543Y552064D01*
X923764Y550730D01*
X926230Y548264D01*
X927564Y545043D01*
X927564Y541557D01*
X926230Y538336D01*
X923764Y535870D01*
X920543Y534536D01*
X917057Y534536D01*
G37*
%LPD*%
%LPC*%
G36*
X891657Y534536D02*
X891657Y534536D01*
X888436Y535870D01*
X885970Y538336D01*
X884636Y541557D01*
X884636Y545043D01*
X885970Y548264D01*
X888436Y550730D01*
X891657Y552064D01*
X895143Y552064D01*
X898364Y550730D01*
X900830Y548264D01*
X902164Y545043D01*
X902164Y541557D01*
X900830Y538336D01*
X898364Y535870D01*
X895143Y534536D01*
X891657Y534536D01*
G37*
%LPD*%
%LPC*%
G36*
X866257Y534536D02*
X866257Y534536D01*
X863036Y535870D01*
X860570Y538336D01*
X859236Y541557D01*
X859236Y545043D01*
X860570Y548264D01*
X863036Y550730D01*
X866257Y552064D01*
X869743Y552064D01*
X872964Y550730D01*
X875430Y548264D01*
X876764Y545043D01*
X876764Y541557D01*
X875430Y538336D01*
X872964Y535870D01*
X869743Y534536D01*
X866257Y534536D01*
G37*
%LPD*%
%LPC*%
G36*
X840857Y534536D02*
X840857Y534536D01*
X837636Y535870D01*
X835170Y538336D01*
X833836Y541557D01*
X833836Y545043D01*
X835170Y548264D01*
X837636Y550730D01*
X840857Y552064D01*
X844343Y552064D01*
X847564Y550730D01*
X850030Y548264D01*
X851364Y545043D01*
X851364Y541557D01*
X850030Y538336D01*
X847564Y535870D01*
X844343Y534536D01*
X840857Y534536D01*
G37*
%LPD*%
%LPC*%
G36*
X815457Y534536D02*
X815457Y534536D01*
X812236Y535870D01*
X809770Y538336D01*
X808436Y541557D01*
X808436Y545043D01*
X809770Y548264D01*
X812236Y550730D01*
X815457Y552064D01*
X818943Y552064D01*
X822164Y550730D01*
X824630Y548264D01*
X825964Y545043D01*
X825964Y541557D01*
X824630Y538336D01*
X822164Y535870D01*
X818943Y534536D01*
X815457Y534536D01*
G37*
%LPD*%
%LPC*%
G36*
X790057Y534536D02*
X790057Y534536D01*
X786836Y535870D01*
X784370Y538336D01*
X783036Y541557D01*
X783036Y545043D01*
X784370Y548264D01*
X786836Y550730D01*
X790057Y552064D01*
X793543Y552064D01*
X796764Y550730D01*
X799230Y548264D01*
X800564Y545043D01*
X800564Y541557D01*
X799230Y538336D01*
X796764Y535870D01*
X793543Y534536D01*
X790057Y534536D01*
G37*
%LPD*%
%LPC*%
G36*
X764657Y534536D02*
X764657Y534536D01*
X761436Y535870D01*
X758970Y538336D01*
X757636Y541557D01*
X757636Y545043D01*
X758970Y548264D01*
X761436Y550730D01*
X764657Y552064D01*
X768143Y552064D01*
X771364Y550730D01*
X773830Y548264D01*
X775164Y545043D01*
X775164Y541557D01*
X773830Y538336D01*
X771364Y535870D01*
X768143Y534536D01*
X764657Y534536D01*
G37*
%LPD*%
%LPC*%
G36*
X739257Y534536D02*
X739257Y534536D01*
X736036Y535870D01*
X733570Y538336D01*
X732236Y541557D01*
X732236Y545043D01*
X733570Y548264D01*
X736036Y550730D01*
X739257Y552064D01*
X742743Y552064D01*
X745964Y550730D01*
X748430Y548264D01*
X749764Y545043D01*
X749764Y541557D01*
X748430Y538336D01*
X745964Y535870D01*
X742743Y534536D01*
X739257Y534536D01*
G37*
%LPD*%
%LPC*%
G36*
X713857Y534536D02*
X713857Y534536D01*
X710636Y535870D01*
X708170Y538336D01*
X706836Y541557D01*
X706836Y545043D01*
X708170Y548264D01*
X710636Y550730D01*
X713857Y552064D01*
X717343Y552064D01*
X720564Y550730D01*
X723030Y548264D01*
X724364Y545043D01*
X724364Y541557D01*
X723030Y538336D01*
X720564Y535870D01*
X717343Y534536D01*
X713857Y534536D01*
G37*
%LPD*%
%LPC*%
G36*
X688457Y534536D02*
X688457Y534536D01*
X685236Y535870D01*
X682770Y538336D01*
X681436Y541557D01*
X681436Y545043D01*
X682770Y548264D01*
X685236Y550730D01*
X688457Y552064D01*
X691943Y552064D01*
X695164Y550730D01*
X697630Y548264D01*
X698964Y545043D01*
X698964Y541557D01*
X697630Y538336D01*
X695164Y535870D01*
X691943Y534536D01*
X688457Y534536D01*
G37*
%LPD*%
%LPC*%
G36*
X663057Y534536D02*
X663057Y534536D01*
X659836Y535870D01*
X657370Y538336D01*
X656036Y541557D01*
X656036Y545043D01*
X657370Y548264D01*
X659836Y550730D01*
X663057Y552064D01*
X666543Y552064D01*
X669764Y550730D01*
X672230Y548264D01*
X673564Y545043D01*
X673564Y541557D01*
X672230Y538336D01*
X669764Y535870D01*
X666543Y534536D01*
X663057Y534536D01*
G37*
%LPD*%
%LPC*%
G36*
X637657Y534536D02*
X637657Y534536D01*
X634436Y535870D01*
X631970Y538336D01*
X630636Y541557D01*
X630636Y545043D01*
X631970Y548264D01*
X634436Y550730D01*
X637657Y552064D01*
X641143Y552064D01*
X644364Y550730D01*
X646830Y548264D01*
X648164Y545043D01*
X648164Y541557D01*
X646830Y538336D01*
X644364Y535870D01*
X641143Y534536D01*
X637657Y534536D01*
G37*
%LPD*%
%LPC*%
G36*
X612257Y534536D02*
X612257Y534536D01*
X609036Y535870D01*
X606570Y538336D01*
X605236Y541557D01*
X605236Y545043D01*
X606570Y548264D01*
X609036Y550730D01*
X612257Y552064D01*
X615743Y552064D01*
X618964Y550730D01*
X621430Y548264D01*
X622764Y545043D01*
X622764Y541557D01*
X621430Y538336D01*
X618964Y535870D01*
X615743Y534536D01*
X612257Y534536D01*
G37*
%LPD*%
%LPC*%
G36*
X586857Y534536D02*
X586857Y534536D01*
X583636Y535870D01*
X581170Y538336D01*
X579836Y541557D01*
X579836Y545043D01*
X581170Y548264D01*
X583636Y550730D01*
X586857Y552064D01*
X590343Y552064D01*
X593564Y550730D01*
X596030Y548264D01*
X597364Y545043D01*
X597364Y541557D01*
X596030Y538336D01*
X593564Y535870D01*
X590343Y534536D01*
X586857Y534536D01*
G37*
%LPD*%
%LPC*%
G36*
X561457Y534536D02*
X561457Y534536D01*
X558236Y535870D01*
X555770Y538336D01*
X554436Y541557D01*
X554436Y545043D01*
X555770Y548264D01*
X558236Y550730D01*
X561457Y552064D01*
X564943Y552064D01*
X568164Y550730D01*
X570630Y548264D01*
X571964Y545043D01*
X571964Y541557D01*
X570630Y538336D01*
X568164Y535870D01*
X564943Y534536D01*
X561457Y534536D01*
G37*
%LPD*%
%LPC*%
G36*
X942457Y509136D02*
X942457Y509136D01*
X939236Y510470D01*
X936770Y512936D01*
X935436Y516157D01*
X935436Y519643D01*
X936770Y522864D01*
X939236Y525330D01*
X942457Y526664D01*
X945943Y526664D01*
X949164Y525330D01*
X951630Y522864D01*
X952964Y519643D01*
X952964Y516157D01*
X951630Y512936D01*
X949164Y510470D01*
X945943Y509136D01*
X942457Y509136D01*
G37*
%LPD*%
%LPC*%
G36*
X917057Y509136D02*
X917057Y509136D01*
X913836Y510470D01*
X911370Y512936D01*
X910036Y516157D01*
X910036Y519643D01*
X911370Y522864D01*
X913836Y525330D01*
X917057Y526664D01*
X920543Y526664D01*
X923764Y525330D01*
X926230Y522864D01*
X927564Y519643D01*
X927564Y516157D01*
X926230Y512936D01*
X923764Y510470D01*
X920543Y509136D01*
X917057Y509136D01*
G37*
%LPD*%
%LPC*%
G36*
X891657Y509136D02*
X891657Y509136D01*
X888436Y510470D01*
X885970Y512936D01*
X884636Y516157D01*
X884636Y519643D01*
X885970Y522864D01*
X888436Y525330D01*
X891657Y526664D01*
X895143Y526664D01*
X898364Y525330D01*
X900830Y522864D01*
X902164Y519643D01*
X902164Y516157D01*
X900830Y512936D01*
X898364Y510470D01*
X895143Y509136D01*
X891657Y509136D01*
G37*
%LPD*%
%LPC*%
G36*
X866257Y509136D02*
X866257Y509136D01*
X863036Y510470D01*
X860570Y512936D01*
X859236Y516157D01*
X859236Y519643D01*
X860570Y522864D01*
X863036Y525330D01*
X866257Y526664D01*
X869743Y526664D01*
X872964Y525330D01*
X875430Y522864D01*
X876764Y519643D01*
X876764Y516157D01*
X875430Y512936D01*
X872964Y510470D01*
X869743Y509136D01*
X866257Y509136D01*
G37*
%LPD*%
%LPC*%
G36*
X840857Y509136D02*
X840857Y509136D01*
X837636Y510470D01*
X835170Y512936D01*
X833836Y516157D01*
X833836Y519643D01*
X835170Y522864D01*
X837636Y525330D01*
X840857Y526664D01*
X844343Y526664D01*
X847564Y525330D01*
X850030Y522864D01*
X851364Y519643D01*
X851364Y516157D01*
X850030Y512936D01*
X847564Y510470D01*
X844343Y509136D01*
X840857Y509136D01*
G37*
%LPD*%
%LPC*%
G36*
X815457Y509136D02*
X815457Y509136D01*
X812236Y510470D01*
X809770Y512936D01*
X808436Y516157D01*
X808436Y519643D01*
X809770Y522864D01*
X812236Y525330D01*
X815457Y526664D01*
X818943Y526664D01*
X822164Y525330D01*
X824630Y522864D01*
X825964Y519643D01*
X825964Y516157D01*
X824630Y512936D01*
X822164Y510470D01*
X818943Y509136D01*
X815457Y509136D01*
G37*
%LPD*%
%LPC*%
G36*
X790057Y509136D02*
X790057Y509136D01*
X786836Y510470D01*
X784370Y512936D01*
X783036Y516157D01*
X783036Y519643D01*
X784370Y522864D01*
X786836Y525330D01*
X790057Y526664D01*
X793543Y526664D01*
X796764Y525330D01*
X799230Y522864D01*
X800564Y519643D01*
X800564Y516157D01*
X799230Y512936D01*
X796764Y510470D01*
X793543Y509136D01*
X790057Y509136D01*
G37*
%LPD*%
%LPC*%
G36*
X739257Y509136D02*
X739257Y509136D01*
X736036Y510470D01*
X733570Y512936D01*
X732236Y516157D01*
X732236Y519643D01*
X733570Y522864D01*
X736036Y525330D01*
X739257Y526664D01*
X742743Y526664D01*
X745964Y525330D01*
X748430Y522864D01*
X749764Y519643D01*
X749764Y516157D01*
X748430Y512936D01*
X745964Y510470D01*
X742743Y509136D01*
X739257Y509136D01*
G37*
%LPD*%
%LPC*%
G36*
X713857Y509136D02*
X713857Y509136D01*
X710636Y510470D01*
X708170Y512936D01*
X706836Y516157D01*
X706836Y519643D01*
X708170Y522864D01*
X710636Y525330D01*
X713857Y526664D01*
X717343Y526664D01*
X720564Y525330D01*
X723030Y522864D01*
X724364Y519643D01*
X724364Y516157D01*
X723030Y512936D01*
X720564Y510470D01*
X717343Y509136D01*
X713857Y509136D01*
G37*
%LPD*%
%LPC*%
G36*
X663057Y509136D02*
X663057Y509136D01*
X659836Y510470D01*
X657370Y512936D01*
X656036Y516157D01*
X656036Y519643D01*
X657370Y522864D01*
X659836Y525330D01*
X663057Y526664D01*
X666543Y526664D01*
X669764Y525330D01*
X672230Y522864D01*
X673564Y519643D01*
X673564Y516157D01*
X672230Y512936D01*
X669764Y510470D01*
X666543Y509136D01*
X663057Y509136D01*
G37*
%LPD*%
%LPC*%
G36*
X637657Y509136D02*
X637657Y509136D01*
X634436Y510470D01*
X631970Y512936D01*
X630636Y516157D01*
X630636Y519643D01*
X631970Y522864D01*
X634436Y525330D01*
X637657Y526664D01*
X641143Y526664D01*
X644364Y525330D01*
X646830Y522864D01*
X648164Y519643D01*
X648164Y516157D01*
X646830Y512936D01*
X644364Y510470D01*
X641143Y509136D01*
X637657Y509136D01*
G37*
%LPD*%
%LPC*%
G36*
X612257Y509136D02*
X612257Y509136D01*
X609036Y510470D01*
X606570Y512936D01*
X605236Y516157D01*
X605236Y519643D01*
X606570Y522864D01*
X609036Y525330D01*
X612257Y526664D01*
X615743Y526664D01*
X618964Y525330D01*
X621430Y522864D01*
X622764Y519643D01*
X622764Y516157D01*
X621430Y512936D01*
X618964Y510470D01*
X615743Y509136D01*
X612257Y509136D01*
G37*
%LPD*%
%LPC*%
G36*
X586857Y509136D02*
X586857Y509136D01*
X583636Y510470D01*
X581170Y512936D01*
X579836Y516157D01*
X579836Y519643D01*
X581170Y522864D01*
X583636Y525330D01*
X586857Y526664D01*
X590343Y526664D01*
X593564Y525330D01*
X596030Y522864D01*
X597364Y519643D01*
X597364Y516157D01*
X596030Y512936D01*
X593564Y510470D01*
X590343Y509136D01*
X586857Y509136D01*
G37*
%LPD*%
%LPC*%
G36*
X561457Y509136D02*
X561457Y509136D01*
X558236Y510470D01*
X555770Y512936D01*
X554436Y516157D01*
X554436Y519643D01*
X555770Y522864D01*
X558236Y525330D01*
X561457Y526664D01*
X564943Y526664D01*
X568164Y525330D01*
X570630Y522864D01*
X571964Y519643D01*
X571964Y516157D01*
X570630Y512936D01*
X568164Y510470D01*
X564943Y509136D01*
X561457Y509136D01*
G37*
%LPD*%
%LPC*%
G36*
X536057Y509136D02*
X536057Y509136D01*
X532836Y510470D01*
X530370Y512936D01*
X529036Y516157D01*
X529036Y519643D01*
X530370Y522864D01*
X532836Y525330D01*
X536057Y526664D01*
X539543Y526664D01*
X542764Y525330D01*
X545230Y522864D01*
X546564Y519643D01*
X546564Y516157D01*
X545230Y512936D01*
X542764Y510470D01*
X539543Y509136D01*
X536057Y509136D01*
G37*
%LPD*%
%LPC*%
G36*
X510657Y509136D02*
X510657Y509136D01*
X507436Y510470D01*
X504970Y512936D01*
X503636Y516157D01*
X503636Y519643D01*
X504970Y522864D01*
X507436Y525330D01*
X510657Y526664D01*
X514143Y526664D01*
X517364Y525330D01*
X519830Y522864D01*
X521164Y519643D01*
X521164Y516157D01*
X519830Y512936D01*
X517364Y510470D01*
X514143Y509136D01*
X510657Y509136D01*
G37*
%LPD*%
%LPC*%
G36*
X713857Y255136D02*
X713857Y255136D01*
X710636Y256470D01*
X708170Y258936D01*
X706836Y262157D01*
X706836Y265643D01*
X708170Y268864D01*
X710636Y271330D01*
X713857Y272664D01*
X717343Y272664D01*
X720564Y271330D01*
X723030Y268864D01*
X724364Y265643D01*
X724364Y262157D01*
X723030Y258936D01*
X720564Y256470D01*
X717343Y255136D01*
X713857Y255136D01*
G37*
%LPD*%
%LPC*%
G36*
X663057Y255136D02*
X663057Y255136D01*
X659836Y256470D01*
X657370Y258936D01*
X656036Y262157D01*
X656036Y265643D01*
X657370Y268864D01*
X659836Y271330D01*
X663057Y272664D01*
X666543Y272664D01*
X669764Y271330D01*
X672230Y268864D01*
X673564Y265643D01*
X673564Y262157D01*
X672230Y258936D01*
X669764Y256470D01*
X666543Y255136D01*
X663057Y255136D01*
G37*
%LPD*%
%LPC*%
G36*
X637657Y255136D02*
X637657Y255136D01*
X634436Y256470D01*
X631970Y258936D01*
X630636Y262157D01*
X630636Y265643D01*
X631970Y268864D01*
X634436Y271330D01*
X637657Y272664D01*
X641143Y272664D01*
X644364Y271330D01*
X646830Y268864D01*
X648164Y265643D01*
X648164Y262157D01*
X646830Y258936D01*
X644364Y256470D01*
X641143Y255136D01*
X637657Y255136D01*
G37*
%LPD*%
%LPC*%
G36*
X688457Y280536D02*
X688457Y280536D01*
X685236Y281870D01*
X682770Y284336D01*
X681436Y287557D01*
X681436Y291043D01*
X682770Y294264D01*
X685236Y296730D01*
X688457Y298064D01*
X691943Y298064D01*
X695164Y296730D01*
X697630Y294264D01*
X698964Y291043D01*
X698964Y287557D01*
X697630Y284336D01*
X695164Y281870D01*
X691943Y280536D01*
X688457Y280536D01*
G37*
%LPD*%
%LPC*%
G36*
X612257Y255136D02*
X612257Y255136D01*
X609036Y256470D01*
X606570Y258936D01*
X605236Y262157D01*
X605236Y265643D01*
X606570Y268864D01*
X609036Y271330D01*
X612257Y272664D01*
X615743Y272664D01*
X618964Y271330D01*
X621430Y268864D01*
X622764Y265643D01*
X622764Y262157D01*
X621430Y258936D01*
X618964Y256470D01*
X615743Y255136D01*
X612257Y255136D01*
G37*
%LPD*%
%LPC*%
G36*
X586857Y255136D02*
X586857Y255136D01*
X583636Y256470D01*
X581170Y258936D01*
X579836Y262157D01*
X579836Y265643D01*
X581170Y268864D01*
X583636Y271330D01*
X586857Y272664D01*
X590343Y272664D01*
X593564Y271330D01*
X596030Y268864D01*
X597364Y265643D01*
X597364Y262157D01*
X596030Y258936D01*
X593564Y256470D01*
X590343Y255136D01*
X586857Y255136D01*
G37*
%LPD*%
%LPC*%
G36*
X561457Y255136D02*
X561457Y255136D01*
X558236Y256470D01*
X555770Y258936D01*
X554436Y262157D01*
X554436Y265643D01*
X555770Y268864D01*
X558236Y271330D01*
X561457Y272664D01*
X564943Y272664D01*
X568164Y271330D01*
X570630Y268864D01*
X571964Y265643D01*
X571964Y262157D01*
X570630Y258936D01*
X568164Y256470D01*
X564943Y255136D01*
X561457Y255136D01*
G37*
%LPD*%
%LPC*%
G36*
X36357Y169036D02*
X36357Y169036D01*
X33136Y170370D01*
X30670Y172836D01*
X29336Y176057D01*
X29336Y179543D01*
X30670Y182764D01*
X33136Y185230D01*
X36357Y186564D01*
X39843Y186564D01*
X43064Y185230D01*
X45530Y182764D01*
X46864Y179543D01*
X46864Y176057D01*
X45530Y172836D01*
X43064Y170370D01*
X39843Y169036D01*
X36357Y169036D01*
G37*
%LPD*%
%LPC*%
G36*
X36357Y143636D02*
X36357Y143636D01*
X33136Y144970D01*
X30670Y147436D01*
X29336Y150657D01*
X29336Y154143D01*
X30670Y157364D01*
X33136Y159830D01*
X36357Y161164D01*
X39843Y161164D01*
X43064Y159830D01*
X45530Y157364D01*
X46864Y154143D01*
X46864Y150657D01*
X45530Y147436D01*
X43064Y144970D01*
X39843Y143636D01*
X36357Y143636D01*
G37*
%LPD*%
%LPC*%
G36*
X688457Y255136D02*
X688457Y255136D01*
X685236Y256470D01*
X682770Y258936D01*
X681436Y262157D01*
X681436Y265643D01*
X682770Y268864D01*
X685236Y271330D01*
X688457Y272664D01*
X691943Y272664D01*
X695164Y271330D01*
X697630Y268864D01*
X698964Y265643D01*
X698964Y262157D01*
X697630Y258936D01*
X695164Y256470D01*
X691943Y255136D01*
X688457Y255136D01*
G37*
%LPD*%
%LPC*%
G36*
X942457Y280536D02*
X942457Y280536D01*
X939236Y281870D01*
X936770Y284336D01*
X935436Y287557D01*
X935436Y291043D01*
X936770Y294264D01*
X939236Y296730D01*
X942457Y298064D01*
X945943Y298064D01*
X949164Y296730D01*
X951630Y294264D01*
X952964Y291043D01*
X952964Y287557D01*
X951630Y284336D01*
X949164Y281870D01*
X945943Y280536D01*
X942457Y280536D01*
G37*
%LPD*%
%LPC*%
G36*
X917057Y280536D02*
X917057Y280536D01*
X913836Y281870D01*
X911370Y284336D01*
X910036Y287557D01*
X910036Y291043D01*
X911370Y294264D01*
X913836Y296730D01*
X917057Y298064D01*
X920543Y298064D01*
X923764Y296730D01*
X926230Y294264D01*
X927564Y291043D01*
X927564Y287557D01*
X926230Y284336D01*
X923764Y281870D01*
X920543Y280536D01*
X917057Y280536D01*
G37*
%LPD*%
%LPC*%
G36*
X739257Y280536D02*
X739257Y280536D01*
X736036Y281870D01*
X733570Y284336D01*
X732236Y287557D01*
X732236Y291043D01*
X733570Y294264D01*
X736036Y296730D01*
X739257Y298064D01*
X742743Y298064D01*
X745964Y296730D01*
X748430Y294264D01*
X749764Y291043D01*
X749764Y287557D01*
X748430Y284336D01*
X745964Y281870D01*
X742743Y280536D01*
X739257Y280536D01*
G37*
%LPD*%
%LPC*%
G36*
X713857Y280536D02*
X713857Y280536D01*
X710636Y281870D01*
X708170Y284336D01*
X706836Y287557D01*
X706836Y291043D01*
X708170Y294264D01*
X710636Y296730D01*
X713857Y298064D01*
X717343Y298064D01*
X720564Y296730D01*
X723030Y294264D01*
X724364Y291043D01*
X724364Y287557D01*
X723030Y284336D01*
X720564Y281870D01*
X717343Y280536D01*
X713857Y280536D01*
G37*
%LPD*%
%LPC*%
G36*
X891657Y280536D02*
X891657Y280536D01*
X888436Y281870D01*
X885970Y284336D01*
X884636Y287557D01*
X884636Y291043D01*
X885970Y294264D01*
X888436Y296730D01*
X891657Y298064D01*
X895143Y298064D01*
X898364Y296730D01*
X900830Y294264D01*
X902164Y291043D01*
X902164Y287557D01*
X900830Y284336D01*
X898364Y281870D01*
X895143Y280536D01*
X891657Y280536D01*
G37*
%LPD*%
%LPC*%
G36*
X866257Y280536D02*
X866257Y280536D01*
X863036Y281870D01*
X860570Y284336D01*
X859236Y287557D01*
X859236Y291043D01*
X860570Y294264D01*
X863036Y296730D01*
X866257Y298064D01*
X869743Y298064D01*
X872964Y296730D01*
X875430Y294264D01*
X876764Y291043D01*
X876764Y287557D01*
X875430Y284336D01*
X872964Y281870D01*
X869743Y280536D01*
X866257Y280536D01*
G37*
%LPD*%
%LPC*%
G36*
X840857Y280536D02*
X840857Y280536D01*
X837636Y281870D01*
X835170Y284336D01*
X833836Y287557D01*
X833836Y291043D01*
X835170Y294264D01*
X837636Y296730D01*
X840857Y298064D01*
X844343Y298064D01*
X847564Y296730D01*
X850030Y294264D01*
X851364Y291043D01*
X851364Y287557D01*
X850030Y284336D01*
X847564Y281870D01*
X844343Y280536D01*
X840857Y280536D01*
G37*
%LPD*%
%LPC*%
G36*
X815457Y280536D02*
X815457Y280536D01*
X812236Y281870D01*
X809770Y284336D01*
X808436Y287557D01*
X808436Y291043D01*
X809770Y294264D01*
X812236Y296730D01*
X815457Y298064D01*
X818943Y298064D01*
X822164Y296730D01*
X824630Y294264D01*
X825964Y291043D01*
X825964Y287557D01*
X824630Y284336D01*
X822164Y281870D01*
X818943Y280536D01*
X815457Y280536D01*
G37*
%LPD*%
%LPC*%
G36*
X790057Y280536D02*
X790057Y280536D01*
X786836Y281870D01*
X784370Y284336D01*
X783036Y287557D01*
X783036Y291043D01*
X784370Y294264D01*
X786836Y296730D01*
X790057Y298064D01*
X793543Y298064D01*
X796764Y296730D01*
X799230Y294264D01*
X800564Y291043D01*
X800564Y287557D01*
X799230Y284336D01*
X796764Y281870D01*
X793543Y280536D01*
X790057Y280536D01*
G37*
%LPD*%
%LPC*%
G36*
X764657Y280536D02*
X764657Y280536D01*
X761436Y281870D01*
X758970Y284336D01*
X757636Y287557D01*
X757636Y291043D01*
X758970Y294264D01*
X761436Y296730D01*
X764657Y298064D01*
X768143Y298064D01*
X771364Y296730D01*
X773830Y294264D01*
X775164Y291043D01*
X775164Y287557D01*
X773830Y284336D01*
X771364Y281870D01*
X768143Y280536D01*
X764657Y280536D01*
G37*
%LPD*%
%LPC*%
G36*
X536057Y280536D02*
X536057Y280536D01*
X532836Y281870D01*
X530370Y284336D01*
X529036Y287557D01*
X529036Y291043D01*
X530370Y294264D01*
X532836Y296730D01*
X536057Y298064D01*
X539543Y298064D01*
X542764Y296730D01*
X545230Y294264D01*
X546564Y291043D01*
X546564Y287557D01*
X545230Y284336D01*
X542764Y281870D01*
X539543Y280536D01*
X536057Y280536D01*
G37*
%LPD*%
%LPC*%
G36*
X510657Y280536D02*
X510657Y280536D01*
X507436Y281870D01*
X504970Y284336D01*
X503636Y287557D01*
X503636Y291043D01*
X504970Y294264D01*
X507436Y296730D01*
X510657Y298064D01*
X514143Y298064D01*
X517364Y296730D01*
X519830Y294264D01*
X521164Y291043D01*
X521164Y287557D01*
X519830Y284336D01*
X517364Y281870D01*
X514143Y280536D01*
X510657Y280536D01*
G37*
%LPD*%
%LPC*%
G36*
X663057Y280536D02*
X663057Y280536D01*
X659836Y281870D01*
X657370Y284336D01*
X656036Y287557D01*
X656036Y291043D01*
X657370Y294264D01*
X659836Y296730D01*
X663057Y298064D01*
X666543Y298064D01*
X669764Y296730D01*
X672230Y294264D01*
X673564Y291043D01*
X673564Y287557D01*
X672230Y284336D01*
X669764Y281870D01*
X666543Y280536D01*
X663057Y280536D01*
G37*
%LPD*%
%LPC*%
G36*
X637657Y280536D02*
X637657Y280536D01*
X634436Y281870D01*
X631970Y284336D01*
X630636Y287557D01*
X630636Y291043D01*
X631970Y294264D01*
X634436Y296730D01*
X637657Y298064D01*
X641143Y298064D01*
X644364Y296730D01*
X646830Y294264D01*
X648164Y291043D01*
X648164Y287557D01*
X646830Y284336D01*
X644364Y281870D01*
X641143Y280536D01*
X637657Y280536D01*
G37*
%LPD*%
%LPC*%
G36*
X612257Y280536D02*
X612257Y280536D01*
X609036Y281870D01*
X606570Y284336D01*
X605236Y287557D01*
X605236Y291043D01*
X606570Y294264D01*
X609036Y296730D01*
X612257Y298064D01*
X615743Y298064D01*
X618964Y296730D01*
X621430Y294264D01*
X622764Y291043D01*
X622764Y287557D01*
X621430Y284336D01*
X618964Y281870D01*
X615743Y280536D01*
X612257Y280536D01*
G37*
%LPD*%
%LPC*%
G36*
X586857Y280536D02*
X586857Y280536D01*
X583636Y281870D01*
X581170Y284336D01*
X579836Y287557D01*
X579836Y291043D01*
X581170Y294264D01*
X583636Y296730D01*
X586857Y298064D01*
X590343Y298064D01*
X593564Y296730D01*
X596030Y294264D01*
X597364Y291043D01*
X597364Y287557D01*
X596030Y284336D01*
X593564Y281870D01*
X590343Y280536D01*
X586857Y280536D01*
G37*
%LPD*%
%LPC*%
G36*
X561457Y280536D02*
X561457Y280536D01*
X558236Y281870D01*
X555770Y284336D01*
X554436Y287557D01*
X554436Y291043D01*
X555770Y294264D01*
X558236Y296730D01*
X561457Y298064D01*
X564943Y298064D01*
X568164Y296730D01*
X570630Y294264D01*
X571964Y291043D01*
X571964Y287557D01*
X570630Y284336D01*
X568164Y281870D01*
X564943Y280536D01*
X561457Y280536D01*
G37*
%LPD*%
%LPC*%
G36*
X536057Y255136D02*
X536057Y255136D01*
X532836Y256470D01*
X530370Y258936D01*
X529036Y262157D01*
X529036Y265643D01*
X530370Y268864D01*
X532836Y271330D01*
X536057Y272664D01*
X539543Y272664D01*
X542764Y271330D01*
X545230Y268864D01*
X546564Y265643D01*
X546564Y262157D01*
X545230Y258936D01*
X542764Y256470D01*
X539543Y255136D01*
X536057Y255136D01*
G37*
%LPD*%
%LPC*%
G36*
X510657Y255136D02*
X510657Y255136D01*
X507436Y256470D01*
X504970Y258936D01*
X503636Y262157D01*
X503636Y265643D01*
X504970Y268864D01*
X507436Y271330D01*
X510657Y272664D01*
X514143Y272664D01*
X517364Y271330D01*
X519830Y268864D01*
X521164Y265643D01*
X521164Y262157D01*
X519830Y258936D01*
X517364Y256470D01*
X514143Y255136D01*
X510657Y255136D01*
G37*
%LPD*%
%LPC*%
G36*
X942457Y255136D02*
X942457Y255136D01*
X939236Y256470D01*
X936770Y258936D01*
X935436Y262157D01*
X935436Y265643D01*
X936770Y268864D01*
X939236Y271330D01*
X942457Y272664D01*
X945943Y272664D01*
X949164Y271330D01*
X951630Y268864D01*
X952964Y265643D01*
X952964Y262157D01*
X951630Y258936D01*
X949164Y256470D01*
X945943Y255136D01*
X942457Y255136D01*
G37*
%LPD*%
%LPC*%
G36*
X917057Y255136D02*
X917057Y255136D01*
X913836Y256470D01*
X911370Y258936D01*
X910036Y262157D01*
X910036Y265643D01*
X911370Y268864D01*
X913836Y271330D01*
X917057Y272664D01*
X920543Y272664D01*
X923764Y271330D01*
X926230Y268864D01*
X927564Y265643D01*
X927564Y262157D01*
X926230Y258936D01*
X923764Y256470D01*
X920543Y255136D01*
X917057Y255136D01*
G37*
%LPD*%
%LPC*%
G36*
X891657Y255136D02*
X891657Y255136D01*
X888436Y256470D01*
X885970Y258936D01*
X884636Y262157D01*
X884636Y265643D01*
X885970Y268864D01*
X888436Y271330D01*
X891657Y272664D01*
X895143Y272664D01*
X898364Y271330D01*
X900830Y268864D01*
X902164Y265643D01*
X902164Y262157D01*
X900830Y258936D01*
X898364Y256470D01*
X895143Y255136D01*
X891657Y255136D01*
G37*
%LPD*%
%LPC*%
G36*
X866257Y255136D02*
X866257Y255136D01*
X863036Y256470D01*
X860570Y258936D01*
X859236Y262157D01*
X859236Y265643D01*
X860570Y268864D01*
X863036Y271330D01*
X866257Y272664D01*
X869743Y272664D01*
X872964Y271330D01*
X875430Y268864D01*
X876764Y265643D01*
X876764Y262157D01*
X875430Y258936D01*
X872964Y256470D01*
X869743Y255136D01*
X866257Y255136D01*
G37*
%LPD*%
%LPC*%
G36*
X321468Y456691D02*
X321468Y456691D01*
X319414Y457542D01*
X317842Y459114D01*
X316991Y461168D01*
X316991Y463392D01*
X317842Y465446D01*
X319414Y467018D01*
X321468Y467869D01*
X323692Y467869D01*
X325746Y467018D01*
X327318Y465446D01*
X328169Y463392D01*
X328169Y461168D01*
X327318Y459114D01*
X325746Y457542D01*
X323692Y456691D01*
X321468Y456691D01*
G37*
%LPD*%
%LPC*%
G36*
X282939Y358539D02*
X282939Y358539D01*
X282939Y368092D01*
X283290Y368037D01*
X285137Y367437D01*
X286868Y366555D01*
X288439Y365413D01*
X289813Y364039D01*
X290955Y362468D01*
X291837Y360737D01*
X292437Y358890D01*
X292492Y358539D01*
X282939Y358539D01*
G37*
%LPD*%
%LPC*%
G36*
X407939Y358539D02*
X407939Y358539D01*
X407939Y368092D01*
X408290Y368037D01*
X410137Y367437D01*
X411868Y366555D01*
X413439Y365413D01*
X414813Y364039D01*
X415955Y362468D01*
X416837Y360737D01*
X417437Y358890D01*
X417492Y358539D01*
X407939Y358539D01*
G37*
%LPD*%
%LPC*%
G36*
X407939Y353461D02*
X407939Y353461D01*
X417492Y353461D01*
X417437Y353110D01*
X416837Y351263D01*
X415955Y349532D01*
X414813Y347961D01*
X413439Y346587D01*
X411868Y345445D01*
X410137Y344563D01*
X408290Y343963D01*
X407939Y343908D01*
X407939Y353461D01*
G37*
%LPD*%
%LPC*%
G36*
X282939Y353461D02*
X282939Y353461D01*
X292492Y353461D01*
X292437Y353110D01*
X291837Y351263D01*
X290955Y349532D01*
X289813Y347961D01*
X288439Y346587D01*
X286868Y345445D01*
X285137Y344563D01*
X283290Y343963D01*
X282939Y343908D01*
X282939Y353461D01*
G37*
%LPD*%
%LPC*%
G36*
X268308Y358539D02*
X268308Y358539D01*
X268363Y358890D01*
X268963Y360737D01*
X269845Y362468D01*
X270987Y364039D01*
X272361Y365413D01*
X273932Y366555D01*
X275663Y367437D01*
X277510Y368037D01*
X277861Y368092D01*
X277861Y358539D01*
X268308Y358539D01*
G37*
%LPD*%
%LPC*%
G36*
X393308Y358539D02*
X393308Y358539D01*
X393363Y358890D01*
X393963Y360737D01*
X394845Y362468D01*
X395987Y364039D01*
X397361Y365413D01*
X398932Y366555D01*
X400663Y367437D01*
X402510Y368037D01*
X402861Y368092D01*
X402861Y358539D01*
X393308Y358539D01*
G37*
%LPD*%
%LPC*%
G36*
X402510Y343963D02*
X402510Y343963D01*
X400663Y344563D01*
X398932Y345445D01*
X397361Y346587D01*
X395987Y347961D01*
X394845Y349532D01*
X393963Y351263D01*
X393363Y353110D01*
X393308Y353461D01*
X402861Y353461D01*
X402861Y343908D01*
X402510Y343963D01*
G37*
%LPD*%
%LPC*%
G36*
X277510Y343963D02*
X277510Y343963D01*
X275663Y344563D01*
X273932Y345445D01*
X272361Y346587D01*
X270987Y347961D01*
X269845Y349532D01*
X268963Y351263D01*
X268363Y353110D01*
X268308Y353461D01*
X277861Y353461D01*
X277861Y343908D01*
X277510Y343963D01*
G37*
%LPD*%
%LPC*%
G36*
X915739Y167639D02*
X915739Y167639D01*
X915739Y175775D01*
X915762Y175771D01*
X917400Y175239D01*
X918934Y174457D01*
X920327Y173445D01*
X921545Y172227D01*
X922557Y170834D01*
X923339Y169300D01*
X923871Y167662D01*
X923875Y167639D01*
X915739Y167639D01*
G37*
%LPD*%
%LPC*%
G36*
X585539Y167639D02*
X585539Y167639D01*
X585539Y175775D01*
X585562Y175771D01*
X587200Y175239D01*
X588734Y174457D01*
X590127Y173445D01*
X591345Y172227D01*
X592357Y170834D01*
X593139Y169300D01*
X593671Y167662D01*
X593675Y167639D01*
X585539Y167639D01*
G37*
%LPD*%
%LPC*%
G36*
X255339Y167639D02*
X255339Y167639D01*
X255339Y175775D01*
X255362Y175771D01*
X257000Y175239D01*
X258534Y174457D01*
X259927Y173445D01*
X261145Y172227D01*
X262157Y170834D01*
X262939Y169300D01*
X263471Y167662D01*
X263475Y167639D01*
X255339Y167639D01*
G37*
%LPD*%
%LPC*%
G36*
X915739Y162561D02*
X915739Y162561D01*
X923875Y162561D01*
X923871Y162538D01*
X923339Y160900D01*
X922557Y159366D01*
X921545Y157973D01*
X920327Y156755D01*
X918934Y155743D01*
X917400Y154961D01*
X915762Y154429D01*
X915739Y154425D01*
X915739Y162561D01*
G37*
%LPD*%
%LPC*%
G36*
X585539Y162561D02*
X585539Y162561D01*
X593675Y162561D01*
X593671Y162538D01*
X593139Y160900D01*
X592357Y159366D01*
X591345Y157973D01*
X590127Y156755D01*
X588734Y155743D01*
X587200Y154961D01*
X585562Y154429D01*
X585539Y154425D01*
X585539Y162561D01*
G37*
%LPD*%
%LPC*%
G36*
X255339Y162561D02*
X255339Y162561D01*
X263475Y162561D01*
X263471Y162538D01*
X262939Y160900D01*
X262157Y159366D01*
X261145Y157973D01*
X259927Y156755D01*
X258534Y155743D01*
X257000Y154961D01*
X255362Y154429D01*
X255339Y154425D01*
X255339Y162561D01*
G37*
%LPD*%
%LPC*%
G36*
X902525Y167639D02*
X902525Y167639D01*
X902529Y167662D01*
X903061Y169300D01*
X903843Y170834D01*
X904855Y172227D01*
X906073Y173445D01*
X907466Y174457D01*
X909000Y175239D01*
X910638Y175771D01*
X910661Y175775D01*
X910661Y167639D01*
X902525Y167639D01*
G37*
%LPD*%
%LPC*%
G36*
X242125Y167639D02*
X242125Y167639D01*
X242129Y167662D01*
X242661Y169300D01*
X243443Y170834D01*
X244455Y172227D01*
X245673Y173445D01*
X247066Y174457D01*
X248600Y175239D01*
X250238Y175771D01*
X250261Y175775D01*
X250261Y167639D01*
X242125Y167639D01*
G37*
%LPD*%
%LPC*%
G36*
X572325Y167639D02*
X572325Y167639D01*
X572329Y167662D01*
X572861Y169300D01*
X573643Y170834D01*
X574655Y172227D01*
X575873Y173445D01*
X577266Y174457D01*
X578800Y175239D01*
X580438Y175771D01*
X580461Y175775D01*
X580461Y167639D01*
X572325Y167639D01*
G37*
%LPD*%
%LPC*%
G36*
X910638Y154429D02*
X910638Y154429D01*
X909000Y154961D01*
X907466Y155743D01*
X906073Y156755D01*
X904855Y157973D01*
X903843Y159366D01*
X903061Y160900D01*
X902529Y162538D01*
X902525Y162561D01*
X910661Y162561D01*
X910661Y154425D01*
X910638Y154429D01*
G37*
%LPD*%
%LPC*%
G36*
X580438Y154429D02*
X580438Y154429D01*
X578800Y154961D01*
X577266Y155743D01*
X575873Y156755D01*
X574655Y157973D01*
X573643Y159366D01*
X572861Y160900D01*
X572329Y162538D01*
X572325Y162561D01*
X580461Y162561D01*
X580461Y154425D01*
X580438Y154429D01*
G37*
%LPD*%
%LPC*%
G36*
X250238Y154429D02*
X250238Y154429D01*
X248600Y154961D01*
X247066Y155743D01*
X245673Y156755D01*
X244455Y157973D01*
X243443Y159366D01*
X242661Y160900D01*
X242129Y162538D01*
X242125Y162561D01*
X250261Y162561D01*
X250261Y154425D01*
X250238Y154429D01*
G37*
%LPD*%
%LPC*%
G36*
X341629Y599439D02*
X341629Y599439D01*
X341629Y606224D01*
X342795Y605846D01*
X344149Y605156D01*
X345378Y604263D01*
X346453Y603188D01*
X347346Y601959D01*
X348036Y600605D01*
X348414Y599439D01*
X341629Y599439D01*
G37*
%LPD*%
%LPC*%
G36*
X329766Y599439D02*
X329766Y599439D01*
X330144Y600605D01*
X330834Y601959D01*
X331727Y603188D01*
X332802Y604263D01*
X334031Y605156D01*
X335385Y605846D01*
X336551Y606224D01*
X336551Y599439D01*
X329766Y599439D01*
G37*
%LPD*%
%LPC*%
G36*
X341629Y594361D02*
X341629Y594361D01*
X348414Y594361D01*
X348036Y593195D01*
X347346Y591841D01*
X346453Y590612D01*
X345378Y589537D01*
X344149Y588644D01*
X342795Y587954D01*
X341629Y587576D01*
X341629Y594361D01*
G37*
%LPD*%
%LPC*%
G36*
X335385Y587954D02*
X335385Y587954D01*
X334031Y588644D01*
X332802Y589537D01*
X331727Y590612D01*
X330834Y591841D01*
X330144Y593195D01*
X329766Y594361D01*
X336551Y594361D01*
X336551Y587576D01*
X335385Y587954D01*
G37*
%LPD*%
%LPC*%
G36*
X692422Y520122D02*
X692422Y520122D01*
X692422Y526393D01*
X692756Y526327D01*
X694351Y525666D01*
X695787Y524707D01*
X697007Y523487D01*
X697966Y522051D01*
X698627Y520456D01*
X698693Y520122D01*
X692422Y520122D01*
G37*
%LPD*%
%LPC*%
G36*
X768622Y520122D02*
X768622Y520122D01*
X768622Y526393D01*
X768956Y526327D01*
X770551Y525666D01*
X771987Y524707D01*
X773207Y523487D01*
X774166Y522051D01*
X774827Y520456D01*
X774893Y520122D01*
X768622Y520122D01*
G37*
%LPD*%
%LPC*%
G36*
X40322Y129222D02*
X40322Y129222D01*
X40322Y135493D01*
X40656Y135427D01*
X42251Y134766D01*
X43687Y133807D01*
X44907Y132587D01*
X45866Y131151D01*
X46527Y129556D01*
X46593Y129222D01*
X40322Y129222D01*
G37*
%LPD*%
%LPC*%
G36*
X757907Y520122D02*
X757907Y520122D01*
X757973Y520456D01*
X758634Y522051D01*
X759593Y523487D01*
X760813Y524707D01*
X762249Y525666D01*
X763844Y526327D01*
X764178Y526393D01*
X764178Y520122D01*
X757907Y520122D01*
G37*
%LPD*%
%LPC*%
G36*
X768622Y515678D02*
X768622Y515678D01*
X774893Y515678D01*
X774827Y515344D01*
X774166Y513749D01*
X773207Y512313D01*
X771987Y511093D01*
X770551Y510134D01*
X768956Y509473D01*
X768622Y509407D01*
X768622Y515678D01*
G37*
%LPD*%
%LPC*%
G36*
X681707Y520122D02*
X681707Y520122D01*
X681773Y520456D01*
X682434Y522051D01*
X683393Y523487D01*
X684613Y524707D01*
X686049Y525666D01*
X687644Y526327D01*
X687978Y526393D01*
X687978Y520122D01*
X681707Y520122D01*
G37*
%LPD*%
%LPC*%
G36*
X40322Y124778D02*
X40322Y124778D01*
X46593Y124778D01*
X46527Y124444D01*
X45866Y122849D01*
X44907Y121413D01*
X43687Y120193D01*
X42251Y119234D01*
X40656Y118573D01*
X40322Y118507D01*
X40322Y124778D01*
G37*
%LPD*%
%LPC*%
G36*
X692422Y515678D02*
X692422Y515678D01*
X698693Y515678D01*
X698627Y515344D01*
X697966Y513749D01*
X697007Y512313D01*
X695787Y511093D01*
X694351Y510134D01*
X692756Y509473D01*
X692422Y509407D01*
X692422Y515678D01*
G37*
%LPD*%
%LPC*%
G36*
X29607Y129222D02*
X29607Y129222D01*
X29673Y129556D01*
X30334Y131151D01*
X31293Y132587D01*
X32513Y133807D01*
X33949Y134766D01*
X35544Y135427D01*
X35878Y135493D01*
X35878Y129222D01*
X29607Y129222D01*
G37*
%LPD*%
%LPC*%
G36*
X763844Y509473D02*
X763844Y509473D01*
X762249Y510134D01*
X760813Y511093D01*
X759593Y512313D01*
X758634Y513749D01*
X757973Y515344D01*
X757907Y515678D01*
X764178Y515678D01*
X764178Y509407D01*
X763844Y509473D01*
G37*
%LPD*%
%LPC*%
G36*
X687644Y509473D02*
X687644Y509473D01*
X686049Y510134D01*
X684613Y511093D01*
X683393Y512313D01*
X682434Y513749D01*
X681773Y515344D01*
X681707Y515678D01*
X687978Y515678D01*
X687978Y509407D01*
X687644Y509473D01*
G37*
%LPD*%
%LPC*%
G36*
X35544Y118573D02*
X35544Y118573D01*
X33949Y119234D01*
X32513Y120193D01*
X31293Y121413D01*
X30334Y122849D01*
X29673Y124444D01*
X29607Y124778D01*
X35878Y124778D01*
X35878Y118507D01*
X35544Y118573D01*
G37*
%LPD*%
%LPC*%
G36*
X339089Y596899D02*
X339089Y596899D01*
X339089Y596901D01*
X339091Y596901D01*
X339091Y596899D01*
X339089Y596899D01*
G37*
%LPD*%
%LPC*%
G36*
X913199Y165099D02*
X913199Y165099D01*
X913199Y165101D01*
X913201Y165101D01*
X913201Y165099D01*
X913199Y165099D01*
G37*
%LPD*%
%LPC*%
G36*
X582999Y165099D02*
X582999Y165099D01*
X582999Y165101D01*
X583001Y165101D01*
X583001Y165099D01*
X582999Y165099D01*
G37*
%LPD*%
%LPC*%
G36*
X252799Y165099D02*
X252799Y165099D01*
X252799Y165101D01*
X252801Y165101D01*
X252801Y165099D01*
X252799Y165099D01*
G37*
%LPD*%
%LPC*%
G36*
X280399Y355999D02*
X280399Y355999D01*
X280399Y356001D01*
X280401Y356001D01*
X280401Y355999D01*
X280399Y355999D01*
G37*
%LPD*%
%LPC*%
G36*
X405399Y355999D02*
X405399Y355999D01*
X405399Y356001D01*
X405401Y356001D01*
X405401Y355999D01*
X405399Y355999D01*
G37*
%LPD*%
D10*
X944200Y263900D03*
X944200Y289300D03*
X918800Y263900D03*
X918800Y289300D03*
X893400Y263900D03*
X893400Y289300D03*
X868000Y263900D03*
X868000Y289300D03*
X842600Y263900D03*
X842600Y289300D03*
X817200Y263900D03*
X817200Y289300D03*
X791800Y263900D03*
X791800Y289300D03*
X766400Y263900D03*
X766400Y289300D03*
X741000Y263900D03*
X741000Y289300D03*
X715600Y263900D03*
X715600Y289300D03*
X690200Y263900D03*
X690200Y289300D03*
X664800Y263900D03*
X664800Y289300D03*
X639400Y263900D03*
X639400Y289300D03*
X614000Y263900D03*
X614000Y289300D03*
X588600Y263900D03*
X588600Y289300D03*
X563200Y263900D03*
X563200Y289300D03*
X537800Y263900D03*
X537800Y289300D03*
X512400Y263900D03*
X512400Y289300D03*
X944200Y517900D03*
X944200Y543300D03*
X918800Y517900D03*
X918800Y543300D03*
X893400Y517900D03*
X893400Y543300D03*
X868000Y517900D03*
X868000Y543300D03*
X842600Y517900D03*
X842600Y543300D03*
X817200Y517900D03*
X817200Y543300D03*
X791800Y517900D03*
X791800Y543300D03*
X766400Y517900D03*
X766400Y543300D03*
X741000Y517900D03*
X741000Y543300D03*
X715600Y517900D03*
X715600Y543300D03*
X690200Y517900D03*
X690200Y543300D03*
X664800Y517900D03*
X664800Y543300D03*
X639400Y517900D03*
X639400Y543300D03*
X614000Y517900D03*
X614000Y543300D03*
X588600Y517900D03*
X588600Y543300D03*
X563200Y517900D03*
X563200Y543300D03*
X537800Y517900D03*
X537800Y543300D03*
X512400Y517900D03*
X512400Y543300D03*
X38100Y177800D03*
X38100Y152400D03*
X38100Y127000D03*
D11*
X280400Y406000D03*
X280400Y356000D03*
X405400Y356000D03*
X405400Y406000D03*
D12*
X288290Y596900D03*
X313690Y596900D03*
X339090Y596900D03*
X364490Y596900D03*
D13*
X102800Y165100D03*
X252800Y165100D03*
X433000Y165100D03*
X583000Y165100D03*
X763200Y165100D03*
X913200Y165100D03*
X989900Y229300D03*
X989900Y208300D03*
X989900Y187300D03*
X989900Y166300D03*
X989900Y145300D03*
X989900Y124300D03*
D14*
X38100Y38100D03*
X977900Y38100D03*
X38100Y596900D03*
X977900Y596900D03*
D15*
X180340Y627380D03*
X203200Y627380D03*
X322580Y462280D03*
M02*
