G04 EAGLE Gerber RS-274X export*
G75*
%MOMM*%
%FSLAX34Y34*%
%LPD*%
%INSilkscreen Top*%
%IPPOS*%
%AMOC8*
5,1,8,0,0,1.08239X$1,22.5*%
G01*
%ADD10C,0.152400*%
%ADD11R,0.254000X0.254000*%
%ADD12R,0.508000X0.254000*%
%ADD13R,1.016000X0.254000*%
%ADD14R,1.778000X0.254000*%
%ADD15R,0.762000X0.254000*%
%ADD16R,1.524000X0.254000*%
%ADD17R,1.270000X0.254000*%
%ADD18C,0.127000*%
%ADD19C,0.101600*%
%ADD20C,0.508000*%
%ADD21C,0.076200*%
%ADD22C,0.254000*%


D10*
X305562Y64262D02*
X305562Y75438D01*
X309287Y69229D01*
X313013Y75438D01*
X313013Y64262D01*
X318996Y66125D02*
X318996Y71713D01*
X318995Y66125D02*
X318997Y66041D01*
X319002Y65958D01*
X319012Y65875D01*
X319025Y65792D01*
X319042Y65710D01*
X319062Y65629D01*
X319086Y65549D01*
X319114Y65470D01*
X319145Y65393D01*
X319179Y65317D01*
X319217Y65242D01*
X319259Y65169D01*
X319303Y65099D01*
X319351Y65030D01*
X319401Y64963D01*
X319455Y64899D01*
X319511Y64838D01*
X319571Y64778D01*
X319632Y64722D01*
X319696Y64668D01*
X319763Y64618D01*
X319832Y64570D01*
X319902Y64526D01*
X319975Y64484D01*
X320050Y64446D01*
X320126Y64412D01*
X320203Y64381D01*
X320282Y64353D01*
X320362Y64329D01*
X320443Y64309D01*
X320525Y64292D01*
X320608Y64279D01*
X320691Y64269D01*
X320774Y64264D01*
X320858Y64262D01*
X323963Y64262D01*
X323963Y71713D01*
X330214Y68608D02*
X333319Y67366D01*
X330214Y68608D02*
X330142Y68639D01*
X330072Y68673D01*
X330003Y68711D01*
X329936Y68752D01*
X329871Y68796D01*
X329809Y68844D01*
X329749Y68894D01*
X329691Y68947D01*
X329636Y69003D01*
X329584Y69062D01*
X329535Y69123D01*
X329489Y69186D01*
X329446Y69251D01*
X329406Y69319D01*
X329369Y69388D01*
X329336Y69459D01*
X329307Y69532D01*
X329281Y69606D01*
X329258Y69681D01*
X329240Y69757D01*
X329225Y69834D01*
X329213Y69912D01*
X329206Y69990D01*
X329202Y70068D01*
X329203Y70146D01*
X329207Y70225D01*
X329214Y70303D01*
X329226Y70380D01*
X329241Y70457D01*
X329261Y70533D01*
X329283Y70608D01*
X329310Y70682D01*
X329340Y70754D01*
X329373Y70825D01*
X329410Y70894D01*
X329450Y70962D01*
X329494Y71027D01*
X329540Y71090D01*
X329590Y71151D01*
X329642Y71209D01*
X329697Y71265D01*
X329755Y71318D01*
X329816Y71368D01*
X329878Y71415D01*
X329943Y71458D01*
X330010Y71499D01*
X330079Y71537D01*
X330150Y71570D01*
X330222Y71601D01*
X330296Y71628D01*
X330370Y71651D01*
X330446Y71671D01*
X330523Y71687D01*
X330600Y71699D01*
X330678Y71707D01*
X330757Y71712D01*
X330835Y71713D01*
X330835Y71712D02*
X331004Y71708D01*
X331174Y71699D01*
X331343Y71687D01*
X331511Y71670D01*
X331680Y71649D01*
X331847Y71625D01*
X332014Y71596D01*
X332181Y71563D01*
X332346Y71526D01*
X332511Y71485D01*
X332674Y71441D01*
X332837Y71392D01*
X332998Y71340D01*
X333158Y71283D01*
X333316Y71223D01*
X333473Y71159D01*
X333629Y71091D01*
X333319Y67367D02*
X333391Y67336D01*
X333461Y67302D01*
X333530Y67264D01*
X333597Y67223D01*
X333662Y67179D01*
X333724Y67131D01*
X333784Y67081D01*
X333842Y67028D01*
X333897Y66972D01*
X333949Y66913D01*
X333998Y66852D01*
X334044Y66789D01*
X334087Y66724D01*
X334127Y66656D01*
X334164Y66587D01*
X334197Y66516D01*
X334226Y66443D01*
X334252Y66369D01*
X334275Y66294D01*
X334293Y66218D01*
X334308Y66141D01*
X334320Y66063D01*
X334327Y65985D01*
X334331Y65907D01*
X334330Y65829D01*
X334326Y65750D01*
X334319Y65672D01*
X334307Y65595D01*
X334292Y65518D01*
X334272Y65442D01*
X334250Y65367D01*
X334223Y65293D01*
X334193Y65221D01*
X334160Y65150D01*
X334123Y65081D01*
X334083Y65013D01*
X334039Y64948D01*
X333993Y64885D01*
X333943Y64824D01*
X333891Y64766D01*
X333836Y64710D01*
X333778Y64657D01*
X333717Y64607D01*
X333655Y64560D01*
X333590Y64517D01*
X333523Y64476D01*
X333454Y64438D01*
X333383Y64405D01*
X333311Y64374D01*
X333237Y64347D01*
X333163Y64324D01*
X333087Y64304D01*
X333010Y64288D01*
X332933Y64276D01*
X332855Y64268D01*
X332776Y64263D01*
X332698Y64262D01*
X332697Y64262D02*
X332448Y64269D01*
X332200Y64281D01*
X331951Y64299D01*
X331703Y64323D01*
X331456Y64353D01*
X331210Y64389D01*
X330964Y64431D01*
X330720Y64478D01*
X330476Y64532D01*
X330234Y64590D01*
X329994Y64655D01*
X329755Y64725D01*
X329518Y64801D01*
X329283Y64883D01*
X339005Y64262D02*
X339005Y71713D01*
X338695Y74817D02*
X338695Y75438D01*
X339316Y75438D01*
X339316Y74817D01*
X338695Y74817D01*
X345640Y64262D02*
X348124Y64262D01*
X345640Y64262D02*
X345556Y64264D01*
X345473Y64269D01*
X345390Y64279D01*
X345307Y64292D01*
X345225Y64309D01*
X345144Y64329D01*
X345064Y64353D01*
X344985Y64381D01*
X344908Y64412D01*
X344832Y64446D01*
X344757Y64484D01*
X344684Y64526D01*
X344614Y64570D01*
X344545Y64618D01*
X344478Y64668D01*
X344414Y64722D01*
X344353Y64778D01*
X344293Y64838D01*
X344237Y64899D01*
X344183Y64963D01*
X344133Y65030D01*
X344085Y65099D01*
X344041Y65169D01*
X343999Y65242D01*
X343961Y65317D01*
X343927Y65393D01*
X343896Y65470D01*
X343868Y65549D01*
X343844Y65629D01*
X343824Y65710D01*
X343807Y65792D01*
X343794Y65875D01*
X343784Y65958D01*
X343779Y66041D01*
X343777Y66125D01*
X343777Y69850D01*
X343779Y69934D01*
X343785Y70017D01*
X343794Y70100D01*
X343807Y70183D01*
X343824Y70265D01*
X343844Y70346D01*
X343868Y70426D01*
X343896Y70505D01*
X343927Y70582D01*
X343961Y70658D01*
X343999Y70733D01*
X344041Y70806D01*
X344085Y70876D01*
X344133Y70945D01*
X344183Y71012D01*
X344237Y71076D01*
X344293Y71137D01*
X344353Y71197D01*
X344414Y71253D01*
X344478Y71307D01*
X344545Y71357D01*
X344614Y71405D01*
X344684Y71449D01*
X344757Y71491D01*
X344832Y71529D01*
X344908Y71563D01*
X344985Y71594D01*
X345064Y71622D01*
X345144Y71646D01*
X345225Y71666D01*
X345307Y71683D01*
X345390Y71696D01*
X345473Y71706D01*
X345556Y71711D01*
X345640Y71713D01*
X348124Y71713D01*
X359353Y70471D02*
X362458Y70471D01*
X362458Y70470D02*
X362569Y70468D01*
X362679Y70462D01*
X362790Y70452D01*
X362900Y70438D01*
X363009Y70421D01*
X363118Y70399D01*
X363226Y70374D01*
X363332Y70344D01*
X363438Y70311D01*
X363543Y70274D01*
X363646Y70234D01*
X363747Y70189D01*
X363847Y70142D01*
X363946Y70090D01*
X364042Y70035D01*
X364136Y69977D01*
X364228Y69916D01*
X364318Y69851D01*
X364406Y69783D01*
X364491Y69712D01*
X364573Y69638D01*
X364653Y69561D01*
X364730Y69481D01*
X364804Y69399D01*
X364875Y69314D01*
X364943Y69226D01*
X365008Y69136D01*
X365069Y69044D01*
X365127Y68950D01*
X365182Y68854D01*
X365234Y68755D01*
X365281Y68655D01*
X365326Y68554D01*
X365366Y68451D01*
X365403Y68346D01*
X365436Y68240D01*
X365466Y68134D01*
X365491Y68026D01*
X365513Y67917D01*
X365530Y67808D01*
X365544Y67698D01*
X365554Y67587D01*
X365560Y67477D01*
X365562Y67366D01*
X365560Y67255D01*
X365554Y67145D01*
X365544Y67034D01*
X365530Y66924D01*
X365513Y66815D01*
X365491Y66706D01*
X365466Y66598D01*
X365436Y66492D01*
X365403Y66386D01*
X365366Y66281D01*
X365326Y66178D01*
X365281Y66077D01*
X365234Y65977D01*
X365182Y65878D01*
X365127Y65782D01*
X365069Y65688D01*
X365008Y65596D01*
X364943Y65506D01*
X364875Y65418D01*
X364804Y65333D01*
X364730Y65251D01*
X364653Y65171D01*
X364573Y65094D01*
X364491Y65020D01*
X364406Y64949D01*
X364318Y64881D01*
X364228Y64816D01*
X364136Y64755D01*
X364042Y64697D01*
X363946Y64642D01*
X363847Y64590D01*
X363747Y64543D01*
X363646Y64498D01*
X363543Y64458D01*
X363438Y64421D01*
X363332Y64388D01*
X363226Y64358D01*
X363118Y64333D01*
X363009Y64311D01*
X362900Y64294D01*
X362790Y64280D01*
X362679Y64270D01*
X362569Y64264D01*
X362458Y64262D01*
X359353Y64262D01*
X359353Y75438D01*
X362458Y75438D01*
X362557Y75436D01*
X362655Y75430D01*
X362754Y75420D01*
X362851Y75407D01*
X362949Y75389D01*
X363045Y75368D01*
X363141Y75342D01*
X363235Y75313D01*
X363328Y75281D01*
X363420Y75244D01*
X363510Y75204D01*
X363599Y75160D01*
X363686Y75113D01*
X363771Y75063D01*
X363853Y75009D01*
X363934Y74952D01*
X364012Y74892D01*
X364088Y74828D01*
X364161Y74762D01*
X364232Y74693D01*
X364300Y74621D01*
X364364Y74546D01*
X364426Y74469D01*
X364485Y74390D01*
X364540Y74308D01*
X364593Y74224D01*
X364641Y74139D01*
X364687Y74051D01*
X364729Y73961D01*
X364767Y73870D01*
X364801Y73778D01*
X364832Y73684D01*
X364859Y73589D01*
X364883Y73493D01*
X364902Y73396D01*
X364918Y73299D01*
X364930Y73201D01*
X364938Y73102D01*
X364942Y73003D01*
X364942Y72905D01*
X364938Y72806D01*
X364930Y72707D01*
X364918Y72609D01*
X364902Y72512D01*
X364883Y72415D01*
X364859Y72319D01*
X364832Y72224D01*
X364801Y72130D01*
X364767Y72038D01*
X364729Y71947D01*
X364687Y71857D01*
X364641Y71769D01*
X364593Y71684D01*
X364540Y71600D01*
X364485Y71518D01*
X364426Y71439D01*
X364364Y71362D01*
X364300Y71287D01*
X364232Y71215D01*
X364161Y71146D01*
X364088Y71080D01*
X364012Y71016D01*
X363934Y70956D01*
X363853Y70899D01*
X363771Y70845D01*
X363686Y70795D01*
X363599Y70748D01*
X363510Y70704D01*
X363420Y70664D01*
X363328Y70627D01*
X363235Y70595D01*
X363141Y70566D01*
X363045Y70540D01*
X362949Y70519D01*
X362851Y70501D01*
X362754Y70488D01*
X362655Y70478D01*
X362557Y70472D01*
X362458Y70470D01*
X370050Y69229D02*
X370050Y66746D01*
X370049Y69229D02*
X370051Y69328D01*
X370057Y69426D01*
X370067Y69525D01*
X370080Y69622D01*
X370098Y69720D01*
X370119Y69816D01*
X370145Y69912D01*
X370174Y70006D01*
X370206Y70099D01*
X370243Y70191D01*
X370283Y70281D01*
X370327Y70370D01*
X370374Y70457D01*
X370424Y70542D01*
X370478Y70624D01*
X370535Y70705D01*
X370595Y70783D01*
X370659Y70859D01*
X370725Y70932D01*
X370794Y71003D01*
X370866Y71071D01*
X370941Y71135D01*
X371018Y71197D01*
X371097Y71256D01*
X371179Y71311D01*
X371263Y71364D01*
X371348Y71412D01*
X371436Y71458D01*
X371526Y71500D01*
X371617Y71538D01*
X371709Y71572D01*
X371803Y71603D01*
X371898Y71630D01*
X371994Y71654D01*
X372091Y71673D01*
X372188Y71689D01*
X372286Y71701D01*
X372385Y71709D01*
X372484Y71713D01*
X372582Y71713D01*
X372681Y71709D01*
X372780Y71701D01*
X372878Y71689D01*
X372975Y71673D01*
X373072Y71654D01*
X373168Y71630D01*
X373263Y71603D01*
X373357Y71572D01*
X373449Y71538D01*
X373540Y71500D01*
X373630Y71458D01*
X373718Y71412D01*
X373803Y71364D01*
X373887Y71311D01*
X373969Y71256D01*
X374048Y71197D01*
X374125Y71135D01*
X374200Y71071D01*
X374272Y71003D01*
X374341Y70932D01*
X374407Y70859D01*
X374471Y70783D01*
X374531Y70705D01*
X374588Y70624D01*
X374642Y70542D01*
X374692Y70457D01*
X374739Y70370D01*
X374783Y70281D01*
X374823Y70191D01*
X374860Y70099D01*
X374892Y70006D01*
X374921Y69912D01*
X374947Y69816D01*
X374968Y69720D01*
X374986Y69622D01*
X374999Y69525D01*
X375009Y69426D01*
X375015Y69328D01*
X375017Y69229D01*
X375017Y66746D01*
X375015Y66647D01*
X375009Y66549D01*
X374999Y66450D01*
X374986Y66353D01*
X374968Y66255D01*
X374947Y66159D01*
X374921Y66063D01*
X374892Y65969D01*
X374860Y65876D01*
X374823Y65784D01*
X374783Y65694D01*
X374739Y65605D01*
X374692Y65518D01*
X374642Y65433D01*
X374588Y65351D01*
X374531Y65270D01*
X374471Y65192D01*
X374407Y65116D01*
X374341Y65043D01*
X374272Y64972D01*
X374200Y64904D01*
X374125Y64840D01*
X374048Y64778D01*
X373969Y64719D01*
X373887Y64664D01*
X373803Y64611D01*
X373718Y64563D01*
X373630Y64517D01*
X373540Y64475D01*
X373449Y64437D01*
X373357Y64403D01*
X373263Y64372D01*
X373168Y64345D01*
X373072Y64321D01*
X372975Y64302D01*
X372878Y64286D01*
X372780Y64274D01*
X372681Y64266D01*
X372582Y64262D01*
X372484Y64262D01*
X372385Y64266D01*
X372286Y64274D01*
X372188Y64286D01*
X372091Y64302D01*
X371994Y64321D01*
X371898Y64345D01*
X371803Y64372D01*
X371709Y64403D01*
X371617Y64437D01*
X371526Y64475D01*
X371436Y64517D01*
X371348Y64563D01*
X371263Y64611D01*
X371179Y64664D01*
X371097Y64719D01*
X371018Y64778D01*
X370941Y64840D01*
X370866Y64904D01*
X370794Y64972D01*
X370725Y65043D01*
X370659Y65116D01*
X370595Y65192D01*
X370535Y65270D01*
X370478Y65351D01*
X370424Y65433D01*
X370374Y65518D01*
X370327Y65605D01*
X370283Y65694D01*
X370243Y65784D01*
X370206Y65876D01*
X370174Y65969D01*
X370145Y66063D01*
X370119Y66159D01*
X370098Y66255D01*
X370080Y66353D01*
X370067Y66450D01*
X370057Y66549D01*
X370051Y66647D01*
X370049Y66746D01*
X379575Y64262D02*
X384542Y71713D01*
X379575Y71713D02*
X384542Y64262D01*
X305562Y50038D02*
X305562Y38862D01*
X305562Y50038D02*
X308666Y50038D01*
X308777Y50036D01*
X308887Y50030D01*
X308998Y50020D01*
X309108Y50006D01*
X309217Y49989D01*
X309326Y49967D01*
X309434Y49942D01*
X309540Y49912D01*
X309646Y49879D01*
X309751Y49842D01*
X309854Y49802D01*
X309955Y49757D01*
X310055Y49710D01*
X310154Y49658D01*
X310250Y49603D01*
X310344Y49545D01*
X310436Y49484D01*
X310526Y49419D01*
X310614Y49351D01*
X310699Y49280D01*
X310781Y49206D01*
X310861Y49129D01*
X310938Y49049D01*
X311012Y48967D01*
X311083Y48882D01*
X311151Y48794D01*
X311216Y48704D01*
X311277Y48612D01*
X311335Y48518D01*
X311390Y48422D01*
X311442Y48323D01*
X311489Y48223D01*
X311534Y48122D01*
X311574Y48019D01*
X311611Y47914D01*
X311644Y47808D01*
X311674Y47702D01*
X311699Y47594D01*
X311721Y47485D01*
X311738Y47376D01*
X311752Y47266D01*
X311762Y47155D01*
X311768Y47045D01*
X311770Y46934D01*
X311768Y46823D01*
X311762Y46713D01*
X311752Y46602D01*
X311738Y46492D01*
X311721Y46383D01*
X311699Y46274D01*
X311674Y46166D01*
X311644Y46060D01*
X311611Y45954D01*
X311574Y45849D01*
X311534Y45746D01*
X311489Y45645D01*
X311442Y45545D01*
X311390Y45446D01*
X311335Y45350D01*
X311277Y45256D01*
X311216Y45164D01*
X311151Y45074D01*
X311083Y44986D01*
X311012Y44901D01*
X310938Y44819D01*
X310861Y44739D01*
X310781Y44662D01*
X310699Y44588D01*
X310614Y44517D01*
X310526Y44449D01*
X310436Y44384D01*
X310344Y44323D01*
X310250Y44265D01*
X310154Y44210D01*
X310055Y44158D01*
X309955Y44111D01*
X309854Y44066D01*
X309751Y44026D01*
X309646Y43989D01*
X309540Y43956D01*
X309434Y43926D01*
X309326Y43901D01*
X309217Y43879D01*
X309108Y43862D01*
X308998Y43848D01*
X308887Y43838D01*
X308777Y43832D01*
X308666Y43830D01*
X308666Y43829D02*
X305562Y43829D01*
X309287Y43829D02*
X311771Y38862D01*
X318622Y38862D02*
X321726Y38862D01*
X318622Y38862D02*
X318538Y38864D01*
X318455Y38869D01*
X318372Y38879D01*
X318289Y38892D01*
X318207Y38909D01*
X318126Y38929D01*
X318046Y38953D01*
X317967Y38981D01*
X317890Y39012D01*
X317814Y39046D01*
X317739Y39084D01*
X317666Y39126D01*
X317596Y39170D01*
X317527Y39218D01*
X317460Y39268D01*
X317396Y39322D01*
X317335Y39378D01*
X317275Y39438D01*
X317219Y39499D01*
X317165Y39563D01*
X317115Y39630D01*
X317067Y39699D01*
X317023Y39769D01*
X316981Y39842D01*
X316943Y39917D01*
X316909Y39993D01*
X316878Y40070D01*
X316850Y40149D01*
X316826Y40229D01*
X316806Y40310D01*
X316789Y40392D01*
X316776Y40475D01*
X316766Y40558D01*
X316761Y40641D01*
X316759Y40725D01*
X316759Y43829D01*
X316758Y43829D02*
X316760Y43928D01*
X316766Y44026D01*
X316776Y44125D01*
X316789Y44222D01*
X316807Y44320D01*
X316828Y44416D01*
X316854Y44512D01*
X316883Y44606D01*
X316915Y44699D01*
X316952Y44791D01*
X316992Y44881D01*
X317036Y44970D01*
X317083Y45057D01*
X317133Y45142D01*
X317187Y45224D01*
X317244Y45305D01*
X317304Y45383D01*
X317368Y45459D01*
X317434Y45532D01*
X317503Y45603D01*
X317575Y45671D01*
X317650Y45735D01*
X317727Y45797D01*
X317806Y45856D01*
X317888Y45911D01*
X317972Y45964D01*
X318057Y46012D01*
X318145Y46058D01*
X318235Y46100D01*
X318326Y46138D01*
X318418Y46172D01*
X318512Y46203D01*
X318607Y46230D01*
X318703Y46254D01*
X318800Y46273D01*
X318897Y46289D01*
X318995Y46301D01*
X319094Y46309D01*
X319193Y46313D01*
X319291Y46313D01*
X319390Y46309D01*
X319489Y46301D01*
X319587Y46289D01*
X319684Y46273D01*
X319781Y46254D01*
X319877Y46230D01*
X319972Y46203D01*
X320066Y46172D01*
X320158Y46138D01*
X320249Y46100D01*
X320339Y46058D01*
X320427Y46012D01*
X320512Y45964D01*
X320596Y45911D01*
X320678Y45856D01*
X320757Y45797D01*
X320834Y45735D01*
X320909Y45671D01*
X320981Y45603D01*
X321050Y45532D01*
X321116Y45459D01*
X321180Y45383D01*
X321240Y45305D01*
X321297Y45224D01*
X321351Y45142D01*
X321401Y45057D01*
X321448Y44970D01*
X321492Y44881D01*
X321532Y44791D01*
X321569Y44699D01*
X321601Y44606D01*
X321630Y44512D01*
X321656Y44416D01*
X321677Y44320D01*
X321695Y44222D01*
X321708Y44125D01*
X321718Y44026D01*
X321724Y43928D01*
X321726Y43829D01*
X321726Y42587D01*
X316759Y42587D01*
X326284Y46313D02*
X328767Y38862D01*
X331251Y46313D01*
X335315Y39483D02*
X335315Y38862D01*
X335315Y39483D02*
X335936Y39483D01*
X335936Y38862D01*
X335315Y38862D01*
X346618Y47554D02*
X349722Y50038D01*
X349722Y38862D01*
X346618Y38862D02*
X352827Y38862D01*
X305562Y24638D02*
X305562Y13462D01*
X309287Y18429D02*
X305562Y24638D01*
X309287Y18429D02*
X313013Y24638D01*
X313013Y13462D01*
X321098Y13462D02*
X321098Y24638D01*
X317994Y24638D02*
X324203Y24638D01*
D11*
X715264Y583692D03*
D12*
X713994Y586232D03*
X713994Y588772D03*
X706374Y591312D03*
D11*
X712724Y591312D03*
D12*
X721614Y591312D03*
D13*
X932434Y591312D03*
D11*
X700024Y593852D03*
D14*
X712724Y593852D03*
D15*
X730504Y593852D03*
D11*
X827024Y593852D03*
X926084Y593852D03*
D12*
X937514Y593852D03*
D11*
X700024Y596392D03*
D13*
X713994Y596392D03*
D11*
X730504Y596392D03*
X735584Y596392D03*
D12*
X769874Y596392D03*
X787654Y596392D03*
D11*
X794004Y596392D03*
D13*
X805434Y596392D03*
D12*
X815594Y596392D03*
X825754Y596392D03*
D13*
X838454Y596392D03*
X853694Y596392D03*
D11*
X865124Y596392D03*
D12*
X884174Y596392D03*
D13*
X899414Y596392D03*
D12*
X909574Y596392D03*
X919734Y596392D03*
D13*
X934974Y596392D03*
D12*
X698754Y598932D03*
X713994Y598932D03*
X736854Y598932D03*
D11*
X771144Y598932D03*
D12*
X777494Y598932D03*
D11*
X786384Y598932D03*
D12*
X795274Y598932D03*
D11*
X801624Y598932D03*
X809244Y598932D03*
X816864Y598932D03*
X827024Y598932D03*
D12*
X833374Y598932D03*
D11*
X842264Y598932D03*
D12*
X848614Y598932D03*
X866394Y598932D03*
D11*
X882904Y598932D03*
D12*
X894334Y598932D03*
D11*
X903224Y598932D03*
X910844Y598932D03*
X921004Y598932D03*
X928624Y598932D03*
D15*
X936244Y598932D03*
D11*
X697484Y601472D03*
X738124Y601472D03*
D12*
X769874Y601472D03*
D15*
X778764Y601472D03*
D11*
X786384Y601472D03*
X794004Y601472D03*
D12*
X800354Y601472D03*
X815594Y601472D03*
X825754Y601472D03*
D13*
X838454Y601472D03*
D16*
X853694Y601472D03*
D11*
X865124Y601472D03*
D12*
X884174Y601472D03*
D17*
X898144Y601472D03*
D12*
X909574Y601472D03*
X919734Y601472D03*
X927354Y601472D03*
D11*
X938784Y601472D03*
D15*
X694944Y604012D03*
D12*
X739394Y604012D03*
D13*
X772414Y604012D03*
X785114Y604012D03*
D12*
X795274Y604012D03*
X802894Y604012D03*
D11*
X809244Y604012D03*
D12*
X818134Y604012D03*
X825754Y604012D03*
D11*
X842264Y604012D03*
D12*
X848614Y604012D03*
X858774Y604012D03*
X866394Y604012D03*
X884174Y604012D03*
D11*
X903224Y604012D03*
D12*
X912114Y604012D03*
D11*
X921004Y604012D03*
D15*
X928624Y604012D03*
D12*
X937514Y604012D03*
X691134Y606552D03*
X739394Y606552D03*
X772414Y606552D03*
X785114Y606552D03*
D11*
X794004Y606552D03*
D13*
X805434Y606552D03*
D17*
X819404Y606552D03*
X837184Y606552D03*
D13*
X853694Y606552D03*
D11*
X865124Y606552D03*
X885444Y606552D03*
D17*
X898144Y606552D03*
D16*
X914654Y606552D03*
D17*
X933704Y606552D03*
D11*
X689864Y609092D03*
X738124Y609092D03*
D12*
X769874Y609092D03*
X785114Y609092D03*
D11*
X816864Y609092D03*
D12*
X866394Y609092D03*
D15*
X882904Y609092D03*
D12*
X688594Y611632D03*
X736854Y611632D03*
D11*
X771144Y611632D03*
X786384Y611632D03*
X794004Y611632D03*
D12*
X815594Y611632D03*
D11*
X865124Y611632D03*
D16*
X884174Y611632D03*
D12*
X688594Y614172D03*
D11*
X738124Y614172D03*
X794004Y614172D03*
D12*
X688594Y616712D03*
X736854Y616712D03*
D11*
X689864Y619252D03*
X738124Y619252D03*
D12*
X693674Y621792D03*
D11*
X727964Y621792D03*
D12*
X734314Y621792D03*
D13*
X696214Y624332D03*
X729234Y624332D03*
D12*
X701294Y626872D03*
X724154Y626872D03*
D15*
X705104Y629412D03*
D13*
X719074Y629412D03*
X711454Y631952D03*
D18*
X208280Y590550D02*
X198120Y590550D01*
D19*
X216408Y591820D02*
X216408Y584708D01*
X216408Y591820D02*
X218384Y591820D01*
X218471Y591818D01*
X218559Y591812D01*
X218646Y591803D01*
X218732Y591789D01*
X218818Y591772D01*
X218902Y591751D01*
X218986Y591726D01*
X219069Y591697D01*
X219150Y591665D01*
X219230Y591630D01*
X219308Y591591D01*
X219385Y591548D01*
X219459Y591502D01*
X219531Y591453D01*
X219601Y591401D01*
X219669Y591345D01*
X219734Y591287D01*
X219797Y591226D01*
X219856Y591162D01*
X219913Y591095D01*
X219967Y591027D01*
X220018Y590955D01*
X220065Y590882D01*
X220110Y590807D01*
X220151Y590729D01*
X220188Y590650D01*
X220222Y590570D01*
X220252Y590488D01*
X220279Y590405D01*
X220302Y590320D01*
X220321Y590235D01*
X220336Y590149D01*
X220348Y590062D01*
X220356Y589975D01*
X220360Y589888D01*
X220360Y589800D01*
X220356Y589713D01*
X220348Y589626D01*
X220336Y589539D01*
X220321Y589453D01*
X220302Y589368D01*
X220279Y589283D01*
X220252Y589200D01*
X220222Y589118D01*
X220188Y589038D01*
X220151Y588959D01*
X220110Y588881D01*
X220065Y588806D01*
X220018Y588733D01*
X219967Y588661D01*
X219913Y588593D01*
X219856Y588526D01*
X219797Y588462D01*
X219734Y588401D01*
X219669Y588343D01*
X219601Y588287D01*
X219531Y588235D01*
X219459Y588186D01*
X219385Y588140D01*
X219308Y588097D01*
X219230Y588058D01*
X219150Y588023D01*
X219069Y587991D01*
X218986Y587962D01*
X218902Y587937D01*
X218818Y587916D01*
X218732Y587899D01*
X218646Y587885D01*
X218559Y587876D01*
X218471Y587870D01*
X218384Y587868D01*
X218384Y587869D02*
X216408Y587869D01*
X218779Y587869D02*
X220359Y584708D01*
X223663Y590240D02*
X225638Y591820D01*
X225638Y584708D01*
X223663Y584708D02*
X227614Y584708D01*
D18*
X185420Y590550D02*
X175260Y590550D01*
D19*
X153386Y589280D02*
X153386Y596392D01*
X155362Y596392D01*
X155449Y596390D01*
X155537Y596384D01*
X155624Y596375D01*
X155710Y596361D01*
X155796Y596344D01*
X155880Y596323D01*
X155964Y596298D01*
X156047Y596269D01*
X156128Y596237D01*
X156208Y596202D01*
X156286Y596163D01*
X156363Y596120D01*
X156437Y596074D01*
X156509Y596025D01*
X156579Y595973D01*
X156647Y595917D01*
X156712Y595859D01*
X156775Y595798D01*
X156834Y595734D01*
X156891Y595667D01*
X156945Y595599D01*
X156996Y595527D01*
X157043Y595454D01*
X157088Y595379D01*
X157129Y595301D01*
X157166Y595222D01*
X157200Y595142D01*
X157230Y595060D01*
X157257Y594977D01*
X157280Y594892D01*
X157299Y594807D01*
X157314Y594721D01*
X157326Y594634D01*
X157334Y594547D01*
X157338Y594460D01*
X157338Y594372D01*
X157334Y594285D01*
X157326Y594198D01*
X157314Y594111D01*
X157299Y594025D01*
X157280Y593940D01*
X157257Y593855D01*
X157230Y593772D01*
X157200Y593690D01*
X157166Y593610D01*
X157129Y593531D01*
X157088Y593453D01*
X157043Y593378D01*
X156996Y593305D01*
X156945Y593233D01*
X156891Y593165D01*
X156834Y593098D01*
X156775Y593034D01*
X156712Y592973D01*
X156647Y592915D01*
X156579Y592859D01*
X156509Y592807D01*
X156437Y592758D01*
X156363Y592712D01*
X156286Y592669D01*
X156208Y592630D01*
X156128Y592595D01*
X156047Y592563D01*
X155964Y592534D01*
X155880Y592509D01*
X155796Y592488D01*
X155710Y592471D01*
X155624Y592457D01*
X155537Y592448D01*
X155449Y592442D01*
X155362Y592440D01*
X155362Y592441D02*
X153386Y592441D01*
X155757Y592441D02*
X157337Y589280D01*
X162814Y596392D02*
X162896Y596390D01*
X162978Y596384D01*
X163060Y596375D01*
X163141Y596362D01*
X163221Y596345D01*
X163301Y596324D01*
X163379Y596300D01*
X163456Y596272D01*
X163532Y596241D01*
X163607Y596206D01*
X163679Y596167D01*
X163750Y596126D01*
X163819Y596081D01*
X163885Y596033D01*
X163950Y595982D01*
X164012Y595928D01*
X164071Y595871D01*
X164128Y595812D01*
X164182Y595750D01*
X164233Y595685D01*
X164281Y595619D01*
X164326Y595550D01*
X164367Y595479D01*
X164406Y595407D01*
X164441Y595332D01*
X164472Y595256D01*
X164500Y595179D01*
X164524Y595101D01*
X164545Y595021D01*
X164562Y594941D01*
X164575Y594860D01*
X164584Y594778D01*
X164590Y594696D01*
X164592Y594614D01*
X162814Y596392D02*
X162721Y596390D01*
X162629Y596384D01*
X162537Y596375D01*
X162445Y596362D01*
X162354Y596345D01*
X162264Y596325D01*
X162174Y596301D01*
X162086Y596273D01*
X161998Y596241D01*
X161913Y596207D01*
X161828Y596168D01*
X161746Y596127D01*
X161665Y596082D01*
X161585Y596033D01*
X161508Y595982D01*
X161433Y595928D01*
X161361Y595870D01*
X161291Y595810D01*
X161223Y595746D01*
X161158Y595681D01*
X161095Y595612D01*
X161036Y595541D01*
X160979Y595468D01*
X160925Y595392D01*
X160875Y595315D01*
X160827Y595235D01*
X160783Y595154D01*
X160743Y595070D01*
X160705Y594986D01*
X160671Y594899D01*
X160641Y594812D01*
X163999Y593231D02*
X164060Y593292D01*
X164118Y593355D01*
X164173Y593421D01*
X164226Y593489D01*
X164275Y593560D01*
X164320Y593632D01*
X164363Y593707D01*
X164402Y593783D01*
X164438Y593862D01*
X164470Y593941D01*
X164498Y594022D01*
X164523Y594105D01*
X164544Y594188D01*
X164561Y594272D01*
X164575Y594357D01*
X164584Y594442D01*
X164590Y594528D01*
X164592Y594614D01*
X163999Y593231D02*
X160641Y589280D01*
X164592Y589280D01*
D20*
X548640Y349250D02*
X549254Y349257D01*
X549867Y349280D01*
X550480Y349317D01*
X551091Y349369D01*
X551702Y349435D01*
X552310Y349517D01*
X552916Y349613D01*
X553520Y349723D01*
X554121Y349848D01*
X554719Y349988D01*
X555313Y350142D01*
X555903Y350311D01*
X556489Y350493D01*
X557070Y350690D01*
X557647Y350901D01*
X558218Y351125D01*
X558784Y351363D01*
X559344Y351615D01*
X559897Y351881D01*
X560444Y352159D01*
X560984Y352451D01*
X561517Y352756D01*
X562042Y353074D01*
X562560Y353404D01*
X563069Y353746D01*
X563570Y354101D01*
X564062Y354468D01*
X564545Y354846D01*
X565019Y355236D01*
X565483Y355638D01*
X565938Y356050D01*
X566382Y356474D01*
X566816Y356908D01*
X567240Y357352D01*
X567652Y357807D01*
X568054Y358271D01*
X568444Y358745D01*
X568822Y359228D01*
X569189Y359720D01*
X569544Y360221D01*
X569886Y360730D01*
X570216Y361248D01*
X570534Y361773D01*
X570839Y362306D01*
X571131Y362846D01*
X571409Y363393D01*
X571675Y363946D01*
X571927Y364506D01*
X572165Y365072D01*
X572389Y365643D01*
X572600Y366220D01*
X572797Y366801D01*
X572979Y367387D01*
X573148Y367977D01*
X573302Y368571D01*
X573442Y369169D01*
X573567Y369770D01*
X573677Y370374D01*
X573773Y370980D01*
X573855Y371588D01*
X573921Y372199D01*
X573973Y372810D01*
X574010Y373423D01*
X574033Y374036D01*
X574040Y374650D01*
X574040Y590550D01*
X574033Y591164D01*
X574010Y591777D01*
X573973Y592390D01*
X573921Y593001D01*
X573855Y593612D01*
X573773Y594220D01*
X573677Y594826D01*
X573567Y595430D01*
X573442Y596031D01*
X573302Y596629D01*
X573148Y597223D01*
X572979Y597813D01*
X572797Y598399D01*
X572600Y598980D01*
X572389Y599557D01*
X572165Y600128D01*
X571927Y600694D01*
X571675Y601254D01*
X571409Y601807D01*
X571131Y602354D01*
X570839Y602894D01*
X570534Y603427D01*
X570216Y603952D01*
X569886Y604470D01*
X569544Y604979D01*
X569189Y605480D01*
X568822Y605972D01*
X568444Y606455D01*
X568054Y606929D01*
X567652Y607393D01*
X567240Y607848D01*
X566816Y608292D01*
X566382Y608726D01*
X565938Y609150D01*
X565483Y609562D01*
X565019Y609964D01*
X564545Y610354D01*
X564062Y610732D01*
X563570Y611099D01*
X563069Y611454D01*
X562560Y611796D01*
X562042Y612126D01*
X561517Y612444D01*
X560984Y612749D01*
X560444Y613041D01*
X559897Y613319D01*
X559344Y613585D01*
X558784Y613837D01*
X558218Y614075D01*
X557647Y614299D01*
X557070Y614510D01*
X556489Y614707D01*
X555903Y614889D01*
X555313Y615058D01*
X554719Y615212D01*
X554121Y615352D01*
X553520Y615477D01*
X552916Y615587D01*
X552310Y615683D01*
X551702Y615765D01*
X551091Y615831D01*
X550480Y615883D01*
X549867Y615920D01*
X549254Y615943D01*
X548640Y615950D01*
X99060Y615950D01*
X98446Y615943D01*
X97833Y615920D01*
X97220Y615883D01*
X96609Y615831D01*
X95998Y615765D01*
X95390Y615683D01*
X94784Y615587D01*
X94180Y615477D01*
X93579Y615352D01*
X92981Y615212D01*
X92387Y615058D01*
X91797Y614889D01*
X91211Y614707D01*
X90630Y614510D01*
X90053Y614299D01*
X89482Y614075D01*
X88916Y613837D01*
X88356Y613585D01*
X87803Y613319D01*
X87256Y613041D01*
X86716Y612749D01*
X86183Y612444D01*
X85658Y612126D01*
X85140Y611796D01*
X84631Y611454D01*
X84130Y611099D01*
X83638Y610732D01*
X83155Y610354D01*
X82681Y609964D01*
X82217Y609562D01*
X81762Y609150D01*
X81318Y608726D01*
X80884Y608292D01*
X80460Y607848D01*
X80048Y607393D01*
X79646Y606929D01*
X79256Y606455D01*
X78878Y605972D01*
X78511Y605480D01*
X78156Y604979D01*
X77814Y604470D01*
X77484Y603952D01*
X77166Y603427D01*
X76861Y602894D01*
X76569Y602354D01*
X76291Y601807D01*
X76025Y601254D01*
X75773Y600694D01*
X75535Y600128D01*
X75311Y599557D01*
X75100Y598980D01*
X74903Y598399D01*
X74721Y597813D01*
X74552Y597223D01*
X74398Y596629D01*
X74258Y596031D01*
X74133Y595430D01*
X74023Y594826D01*
X73927Y594220D01*
X73845Y593612D01*
X73779Y593001D01*
X73727Y592390D01*
X73690Y591777D01*
X73667Y591164D01*
X73660Y590550D01*
X73660Y374650D01*
X73667Y374036D01*
X73690Y373423D01*
X73727Y372810D01*
X73779Y372199D01*
X73845Y371588D01*
X73927Y370980D01*
X74023Y370374D01*
X74133Y369770D01*
X74258Y369169D01*
X74398Y368571D01*
X74552Y367977D01*
X74721Y367387D01*
X74903Y366801D01*
X75100Y366220D01*
X75311Y365643D01*
X75535Y365072D01*
X75773Y364506D01*
X76025Y363946D01*
X76291Y363393D01*
X76569Y362846D01*
X76861Y362306D01*
X77166Y361773D01*
X77484Y361248D01*
X77814Y360730D01*
X78156Y360221D01*
X78511Y359720D01*
X78878Y359228D01*
X79256Y358745D01*
X79646Y358271D01*
X80048Y357807D01*
X80460Y357352D01*
X80884Y356908D01*
X81318Y356474D01*
X81762Y356050D01*
X82217Y355638D01*
X82681Y355236D01*
X83155Y354846D01*
X83638Y354468D01*
X84130Y354101D01*
X84631Y353746D01*
X85140Y353404D01*
X85658Y353074D01*
X86183Y352756D01*
X86716Y352451D01*
X87256Y352159D01*
X87803Y351881D01*
X88356Y351615D01*
X88916Y351363D01*
X89482Y351125D01*
X90053Y350901D01*
X90630Y350690D01*
X91211Y350493D01*
X91797Y350311D01*
X92387Y350142D01*
X92981Y349988D01*
X93579Y349848D01*
X94180Y349723D01*
X94784Y349613D01*
X95390Y349517D01*
X95998Y349435D01*
X96609Y349369D01*
X97220Y349317D01*
X97833Y349280D01*
X98446Y349257D01*
X99060Y349250D01*
X548640Y349250D01*
D21*
X292989Y622681D02*
X290901Y622681D01*
X290812Y622683D01*
X290724Y622689D01*
X290636Y622698D01*
X290548Y622711D01*
X290461Y622728D01*
X290375Y622748D01*
X290290Y622773D01*
X290205Y622800D01*
X290122Y622832D01*
X290041Y622866D01*
X289961Y622905D01*
X289883Y622946D01*
X289806Y622991D01*
X289732Y623039D01*
X289659Y623090D01*
X289589Y623144D01*
X289522Y623202D01*
X289456Y623262D01*
X289394Y623324D01*
X289334Y623390D01*
X289276Y623457D01*
X289222Y623527D01*
X289171Y623600D01*
X289123Y623674D01*
X289078Y623751D01*
X289037Y623829D01*
X288998Y623909D01*
X288964Y623990D01*
X288932Y624073D01*
X288905Y624158D01*
X288880Y624243D01*
X288860Y624329D01*
X288843Y624416D01*
X288830Y624504D01*
X288821Y624592D01*
X288815Y624680D01*
X288813Y624769D01*
X288812Y624769D02*
X288812Y629991D01*
X288813Y629991D02*
X288815Y630082D01*
X288821Y630173D01*
X288831Y630264D01*
X288845Y630354D01*
X288862Y630443D01*
X288884Y630531D01*
X288910Y630619D01*
X288939Y630705D01*
X288972Y630790D01*
X289009Y630873D01*
X289049Y630955D01*
X289093Y631035D01*
X289140Y631113D01*
X289191Y631189D01*
X289244Y631262D01*
X289301Y631333D01*
X289362Y631402D01*
X289425Y631467D01*
X289490Y631530D01*
X289559Y631590D01*
X289630Y631648D01*
X289703Y631701D01*
X289779Y631752D01*
X289857Y631799D01*
X289937Y631843D01*
X290019Y631883D01*
X290102Y631920D01*
X290187Y631953D01*
X290273Y631982D01*
X290361Y632008D01*
X290449Y632030D01*
X290538Y632047D01*
X290628Y632061D01*
X290719Y632071D01*
X290810Y632077D01*
X290901Y632079D01*
X292989Y632079D01*
X313168Y632079D02*
X313168Y622681D01*
X313168Y632079D02*
X315778Y632079D01*
X315878Y632077D01*
X315978Y632071D01*
X316077Y632062D01*
X316177Y632048D01*
X316275Y632031D01*
X316373Y632010D01*
X316470Y631986D01*
X316566Y631957D01*
X316661Y631925D01*
X316754Y631890D01*
X316846Y631851D01*
X316937Y631808D01*
X317025Y631762D01*
X317112Y631712D01*
X317197Y631660D01*
X317280Y631604D01*
X317361Y631545D01*
X317439Y631482D01*
X317515Y631417D01*
X317589Y631349D01*
X317659Y631279D01*
X317727Y631205D01*
X317792Y631129D01*
X317855Y631051D01*
X317914Y630970D01*
X317970Y630887D01*
X318022Y630802D01*
X318072Y630715D01*
X318118Y630627D01*
X318161Y630536D01*
X318200Y630444D01*
X318235Y630351D01*
X318267Y630256D01*
X318296Y630160D01*
X318320Y630063D01*
X318341Y629965D01*
X318358Y629867D01*
X318372Y629767D01*
X318381Y629668D01*
X318387Y629568D01*
X318389Y629468D01*
X318389Y625292D01*
X318387Y625192D01*
X318381Y625092D01*
X318372Y624993D01*
X318358Y624893D01*
X318341Y624795D01*
X318320Y624697D01*
X318296Y624600D01*
X318267Y624504D01*
X318235Y624409D01*
X318200Y624316D01*
X318161Y624224D01*
X318118Y624133D01*
X318072Y624045D01*
X318022Y623958D01*
X317970Y623873D01*
X317914Y623790D01*
X317855Y623709D01*
X317792Y623631D01*
X317727Y623555D01*
X317659Y623481D01*
X317589Y623411D01*
X317515Y623343D01*
X317439Y623278D01*
X317361Y623215D01*
X317280Y623156D01*
X317197Y623100D01*
X317112Y623048D01*
X317025Y622998D01*
X316937Y622952D01*
X316846Y622909D01*
X316754Y622870D01*
X316661Y622835D01*
X316566Y622803D01*
X316470Y622774D01*
X316373Y622750D01*
X316275Y622729D01*
X316177Y622712D01*
X316077Y622698D01*
X315978Y622689D01*
X315878Y622683D01*
X315778Y622681D01*
X313168Y622681D01*
X337524Y626336D02*
X343789Y626336D01*
X362924Y626336D02*
X369189Y626336D01*
X366056Y623203D02*
X366056Y629468D01*
D10*
X64262Y626166D02*
X64262Y634238D01*
X64262Y626166D02*
X64264Y626055D01*
X64270Y625945D01*
X64280Y625834D01*
X64294Y625724D01*
X64311Y625615D01*
X64333Y625506D01*
X64358Y625398D01*
X64388Y625292D01*
X64421Y625186D01*
X64458Y625081D01*
X64498Y624978D01*
X64543Y624877D01*
X64590Y624777D01*
X64642Y624678D01*
X64697Y624582D01*
X64755Y624488D01*
X64816Y624396D01*
X64881Y624306D01*
X64949Y624218D01*
X65020Y624133D01*
X65094Y624051D01*
X65171Y623971D01*
X65251Y623894D01*
X65333Y623820D01*
X65418Y623749D01*
X65506Y623681D01*
X65596Y623616D01*
X65688Y623555D01*
X65782Y623497D01*
X65878Y623442D01*
X65977Y623390D01*
X66077Y623343D01*
X66178Y623298D01*
X66281Y623258D01*
X66386Y623221D01*
X66492Y623188D01*
X66598Y623158D01*
X66706Y623133D01*
X66815Y623111D01*
X66924Y623094D01*
X67034Y623080D01*
X67145Y623070D01*
X67255Y623064D01*
X67366Y623062D01*
X67477Y623064D01*
X67587Y623070D01*
X67698Y623080D01*
X67808Y623094D01*
X67917Y623111D01*
X68026Y623133D01*
X68134Y623158D01*
X68240Y623188D01*
X68346Y623221D01*
X68451Y623258D01*
X68554Y623298D01*
X68655Y623343D01*
X68755Y623390D01*
X68854Y623442D01*
X68950Y623497D01*
X69044Y623555D01*
X69136Y623616D01*
X69226Y623681D01*
X69314Y623749D01*
X69399Y623820D01*
X69481Y623894D01*
X69561Y623971D01*
X69638Y624051D01*
X69712Y624133D01*
X69783Y624218D01*
X69851Y624306D01*
X69916Y624396D01*
X69977Y624488D01*
X70035Y624582D01*
X70090Y624678D01*
X70142Y624777D01*
X70189Y624877D01*
X70234Y624978D01*
X70274Y625081D01*
X70311Y625186D01*
X70344Y625292D01*
X70374Y625398D01*
X70399Y625506D01*
X70421Y625615D01*
X70438Y625724D01*
X70452Y625834D01*
X70462Y625945D01*
X70468Y626055D01*
X70470Y626166D01*
X70471Y626166D02*
X70471Y634238D01*
X79488Y634238D02*
X79592Y634236D01*
X79697Y634230D01*
X79801Y634220D01*
X79904Y634207D01*
X80007Y634189D01*
X80110Y634168D01*
X80211Y634143D01*
X80312Y634114D01*
X80411Y634081D01*
X80509Y634045D01*
X80605Y634005D01*
X80700Y633961D01*
X80794Y633914D01*
X80885Y633864D01*
X80974Y633810D01*
X81062Y633753D01*
X81147Y633692D01*
X81230Y633628D01*
X81310Y633562D01*
X81388Y633492D01*
X81464Y633420D01*
X81536Y633344D01*
X81606Y633266D01*
X81672Y633186D01*
X81736Y633103D01*
X81797Y633018D01*
X81854Y632930D01*
X81908Y632841D01*
X81958Y632750D01*
X82005Y632656D01*
X82049Y632561D01*
X82089Y632465D01*
X82125Y632367D01*
X82158Y632268D01*
X82187Y632167D01*
X82212Y632066D01*
X82233Y631963D01*
X82251Y631860D01*
X82264Y631757D01*
X82274Y631653D01*
X82280Y631548D01*
X82282Y631444D01*
X79488Y634239D02*
X79369Y634237D01*
X79251Y634231D01*
X79132Y634221D01*
X79014Y634208D01*
X78897Y634190D01*
X78780Y634168D01*
X78664Y634143D01*
X78549Y634114D01*
X78434Y634081D01*
X78321Y634044D01*
X78210Y634004D01*
X78099Y633960D01*
X77991Y633912D01*
X77884Y633861D01*
X77778Y633806D01*
X77675Y633747D01*
X77573Y633686D01*
X77474Y633621D01*
X77376Y633552D01*
X77282Y633481D01*
X77189Y633406D01*
X77099Y633329D01*
X77012Y633248D01*
X76927Y633165D01*
X76845Y633079D01*
X76766Y632990D01*
X76690Y632899D01*
X76617Y632805D01*
X76548Y632709D01*
X76481Y632610D01*
X76418Y632510D01*
X76358Y632407D01*
X76301Y632303D01*
X76249Y632196D01*
X76199Y632088D01*
X76153Y631979D01*
X76111Y631867D01*
X76073Y631755D01*
X81351Y629271D02*
X81426Y629345D01*
X81498Y629422D01*
X81568Y629501D01*
X81635Y629583D01*
X81699Y629667D01*
X81760Y629753D01*
X81818Y629841D01*
X81873Y629932D01*
X81925Y630024D01*
X81973Y630118D01*
X82018Y630213D01*
X82060Y630311D01*
X82098Y630409D01*
X82133Y630509D01*
X82164Y630610D01*
X82191Y630712D01*
X82215Y630815D01*
X82236Y630918D01*
X82252Y631023D01*
X82265Y631128D01*
X82275Y631233D01*
X82280Y631338D01*
X82282Y631444D01*
X81351Y629271D02*
X76073Y623062D01*
X82282Y623062D01*
D22*
X159839Y165100D02*
X159844Y165541D01*
X159861Y165981D01*
X159888Y166421D01*
X159925Y166860D01*
X159974Y167299D01*
X160033Y167735D01*
X160103Y168171D01*
X160184Y168604D01*
X160275Y169035D01*
X160377Y169464D01*
X160490Y169890D01*
X160612Y170314D01*
X160746Y170734D01*
X160889Y171151D01*
X161043Y171564D01*
X161206Y171973D01*
X161380Y172379D01*
X161563Y172779D01*
X161757Y173175D01*
X161960Y173567D01*
X162172Y173953D01*
X162394Y174334D01*
X162626Y174709D01*
X162866Y175079D01*
X163115Y175442D01*
X163374Y175799D01*
X163641Y176150D01*
X163916Y176494D01*
X164200Y176832D01*
X164492Y177162D01*
X164792Y177485D01*
X165100Y177800D01*
X165415Y178108D01*
X165738Y178408D01*
X166068Y178700D01*
X166406Y178984D01*
X166750Y179259D01*
X167101Y179526D01*
X167458Y179785D01*
X167821Y180034D01*
X168191Y180274D01*
X168566Y180506D01*
X168947Y180728D01*
X169333Y180940D01*
X169725Y181143D01*
X170121Y181337D01*
X170521Y181520D01*
X170927Y181694D01*
X171336Y181857D01*
X171749Y182011D01*
X172166Y182154D01*
X172586Y182288D01*
X173010Y182410D01*
X173436Y182523D01*
X173865Y182625D01*
X174296Y182716D01*
X174729Y182797D01*
X175165Y182867D01*
X175601Y182926D01*
X176040Y182975D01*
X176479Y183012D01*
X176919Y183039D01*
X177359Y183056D01*
X177800Y183061D01*
X178241Y183056D01*
X178681Y183039D01*
X179121Y183012D01*
X179560Y182975D01*
X179999Y182926D01*
X180435Y182867D01*
X180871Y182797D01*
X181304Y182716D01*
X181735Y182625D01*
X182164Y182523D01*
X182590Y182410D01*
X183014Y182288D01*
X183434Y182154D01*
X183851Y182011D01*
X184264Y181857D01*
X184673Y181694D01*
X185079Y181520D01*
X185479Y181337D01*
X185875Y181143D01*
X186267Y180940D01*
X186653Y180728D01*
X187034Y180506D01*
X187409Y180274D01*
X187779Y180034D01*
X188142Y179785D01*
X188499Y179526D01*
X188850Y179259D01*
X189194Y178984D01*
X189532Y178700D01*
X189862Y178408D01*
X190185Y178108D01*
X190500Y177800D01*
X190808Y177485D01*
X191108Y177162D01*
X191400Y176832D01*
X191684Y176494D01*
X191959Y176150D01*
X192226Y175799D01*
X192485Y175442D01*
X192734Y175079D01*
X192974Y174709D01*
X193206Y174334D01*
X193428Y173953D01*
X193640Y173567D01*
X193843Y173175D01*
X194037Y172779D01*
X194220Y172379D01*
X194394Y171973D01*
X194557Y171564D01*
X194711Y171151D01*
X194854Y170734D01*
X194988Y170314D01*
X195110Y169890D01*
X195223Y169464D01*
X195325Y169035D01*
X195416Y168604D01*
X195497Y168171D01*
X195567Y167735D01*
X195626Y167299D01*
X195675Y166860D01*
X195712Y166421D01*
X195739Y165981D01*
X195756Y165541D01*
X195761Y165100D01*
X195756Y164659D01*
X195739Y164219D01*
X195712Y163779D01*
X195675Y163340D01*
X195626Y162901D01*
X195567Y162465D01*
X195497Y162029D01*
X195416Y161596D01*
X195325Y161165D01*
X195223Y160736D01*
X195110Y160310D01*
X194988Y159886D01*
X194854Y159466D01*
X194711Y159049D01*
X194557Y158636D01*
X194394Y158227D01*
X194220Y157821D01*
X194037Y157421D01*
X193843Y157025D01*
X193640Y156633D01*
X193428Y156247D01*
X193206Y155866D01*
X192974Y155491D01*
X192734Y155121D01*
X192485Y154758D01*
X192226Y154401D01*
X191959Y154050D01*
X191684Y153706D01*
X191400Y153368D01*
X191108Y153038D01*
X190808Y152715D01*
X190500Y152400D01*
X190185Y152092D01*
X189862Y151792D01*
X189532Y151500D01*
X189194Y151216D01*
X188850Y150941D01*
X188499Y150674D01*
X188142Y150415D01*
X187779Y150166D01*
X187409Y149926D01*
X187034Y149694D01*
X186653Y149472D01*
X186267Y149260D01*
X185875Y149057D01*
X185479Y148863D01*
X185079Y148680D01*
X184673Y148506D01*
X184264Y148343D01*
X183851Y148189D01*
X183434Y148046D01*
X183014Y147912D01*
X182590Y147790D01*
X182164Y147677D01*
X181735Y147575D01*
X181304Y147484D01*
X180871Y147403D01*
X180435Y147333D01*
X179999Y147274D01*
X179560Y147225D01*
X179121Y147188D01*
X178681Y147161D01*
X178241Y147144D01*
X177800Y147139D01*
X177359Y147144D01*
X176919Y147161D01*
X176479Y147188D01*
X176040Y147225D01*
X175601Y147274D01*
X175165Y147333D01*
X174729Y147403D01*
X174296Y147484D01*
X173865Y147575D01*
X173436Y147677D01*
X173010Y147790D01*
X172586Y147912D01*
X172166Y148046D01*
X171749Y148189D01*
X171336Y148343D01*
X170927Y148506D01*
X170521Y148680D01*
X170121Y148863D01*
X169725Y149057D01*
X169333Y149260D01*
X168947Y149472D01*
X168566Y149694D01*
X168191Y149926D01*
X167821Y150166D01*
X167458Y150415D01*
X167101Y150674D01*
X166750Y150941D01*
X166406Y151216D01*
X166068Y151500D01*
X165738Y151792D01*
X165415Y152092D01*
X165100Y152400D01*
X164792Y152715D01*
X164492Y153038D01*
X164200Y153368D01*
X163916Y153706D01*
X163641Y154050D01*
X163374Y154401D01*
X163115Y154758D01*
X162866Y155121D01*
X162626Y155491D01*
X162394Y155866D01*
X162172Y156247D01*
X161960Y156633D01*
X161757Y157025D01*
X161563Y157421D01*
X161380Y157821D01*
X161206Y158227D01*
X161043Y158636D01*
X160889Y159049D01*
X160746Y159466D01*
X160612Y159886D01*
X160490Y160310D01*
X160377Y160736D01*
X160275Y161165D01*
X160184Y161596D01*
X160103Y162029D01*
X160033Y162465D01*
X159974Y162901D01*
X159925Y163340D01*
X159888Y163779D01*
X159861Y164219D01*
X159844Y164659D01*
X159839Y165100D01*
X31300Y165100D02*
X31344Y168695D01*
X31476Y172288D01*
X31697Y175877D01*
X32005Y179460D01*
X32402Y183033D01*
X32886Y186596D01*
X33457Y190146D01*
X34115Y193681D01*
X34860Y197198D01*
X35690Y200697D01*
X36607Y204173D01*
X37608Y207627D01*
X38694Y211054D01*
X39864Y214454D01*
X41117Y217825D01*
X42452Y221163D01*
X43868Y224468D01*
X45366Y227737D01*
X46943Y230968D01*
X48599Y234160D01*
X50332Y237310D01*
X52143Y240416D01*
X54029Y243477D01*
X55990Y246491D01*
X58024Y249456D01*
X60130Y252370D01*
X62307Y255231D01*
X64554Y258039D01*
X66869Y260790D01*
X69251Y263483D01*
X71698Y266118D01*
X74209Y268691D01*
X76782Y271202D01*
X79417Y273649D01*
X82110Y276031D01*
X84861Y278346D01*
X87669Y280593D01*
X90530Y282770D01*
X93444Y284876D01*
X96409Y286910D01*
X99423Y288871D01*
X102484Y290757D01*
X105590Y292568D01*
X108740Y294301D01*
X111932Y295957D01*
X115163Y297534D01*
X118432Y299032D01*
X121737Y300448D01*
X125075Y301783D01*
X128446Y303036D01*
X131846Y304206D01*
X135273Y305292D01*
X138727Y306293D01*
X142203Y307210D01*
X145702Y308040D01*
X149219Y308785D01*
X152754Y309443D01*
X156304Y310014D01*
X159867Y310498D01*
X163440Y310895D01*
X167023Y311203D01*
X170612Y311424D01*
X174205Y311556D01*
X177800Y311600D01*
X181395Y311556D01*
X184988Y311424D01*
X188577Y311203D01*
X192160Y310895D01*
X195733Y310498D01*
X199296Y310014D01*
X202846Y309443D01*
X206381Y308785D01*
X209898Y308040D01*
X213397Y307210D01*
X216873Y306293D01*
X220327Y305292D01*
X223754Y304206D01*
X227154Y303036D01*
X230525Y301783D01*
X233863Y300448D01*
X237168Y299032D01*
X240437Y297534D01*
X243668Y295957D01*
X246860Y294301D01*
X250010Y292568D01*
X253116Y290757D01*
X256177Y288871D01*
X259191Y286910D01*
X262156Y284876D01*
X265070Y282770D01*
X267931Y280593D01*
X270739Y278346D01*
X273490Y276031D01*
X276183Y273649D01*
X278818Y271202D01*
X281391Y268691D01*
X283902Y266118D01*
X286349Y263483D01*
X288731Y260790D01*
X291046Y258039D01*
X293293Y255231D01*
X295470Y252370D01*
X297576Y249456D01*
X299610Y246491D01*
X301571Y243477D01*
X303457Y240416D01*
X305268Y237310D01*
X307001Y234160D01*
X308657Y230968D01*
X310234Y227737D01*
X311732Y224468D01*
X313148Y221163D01*
X314483Y217825D01*
X315736Y214454D01*
X316906Y211054D01*
X317992Y207627D01*
X318993Y204173D01*
X319910Y200697D01*
X320740Y197198D01*
X321485Y193681D01*
X322143Y190146D01*
X322714Y186596D01*
X323198Y183033D01*
X323595Y179460D01*
X323903Y175877D01*
X324124Y172288D01*
X324256Y168695D01*
X324300Y165100D01*
X324256Y161505D01*
X324124Y157912D01*
X323903Y154323D01*
X323595Y150740D01*
X323198Y147167D01*
X322714Y143604D01*
X322143Y140054D01*
X321485Y136519D01*
X320740Y133002D01*
X319910Y129503D01*
X318993Y126027D01*
X317992Y122573D01*
X316906Y119146D01*
X315736Y115746D01*
X314483Y112375D01*
X313148Y109037D01*
X311732Y105732D01*
X310234Y102463D01*
X308657Y99232D01*
X307001Y96040D01*
X305268Y92890D01*
X303457Y89784D01*
X301571Y86723D01*
X299610Y83709D01*
X297576Y80744D01*
X295470Y77830D01*
X293293Y74969D01*
X291046Y72161D01*
X288731Y69410D01*
X286349Y66717D01*
X283902Y64082D01*
X281391Y61509D01*
X278818Y58998D01*
X276183Y56551D01*
X273490Y54169D01*
X270739Y51854D01*
X267931Y49607D01*
X265070Y47430D01*
X262156Y45324D01*
X259191Y43290D01*
X256177Y41329D01*
X253116Y39443D01*
X250010Y37632D01*
X246860Y35899D01*
X243668Y34243D01*
X240437Y32666D01*
X237168Y31168D01*
X233863Y29752D01*
X230525Y28417D01*
X227154Y27164D01*
X223754Y25994D01*
X220327Y24908D01*
X216873Y23907D01*
X213397Y22990D01*
X209898Y22160D01*
X206381Y21415D01*
X202846Y20757D01*
X199296Y20186D01*
X195733Y19702D01*
X192160Y19305D01*
X188577Y18997D01*
X184988Y18776D01*
X181395Y18644D01*
X177800Y18600D01*
X174205Y18644D01*
X170612Y18776D01*
X167023Y18997D01*
X163440Y19305D01*
X159867Y19702D01*
X156304Y20186D01*
X152754Y20757D01*
X149219Y21415D01*
X145702Y22160D01*
X142203Y22990D01*
X138727Y23907D01*
X135273Y24908D01*
X131846Y25994D01*
X128446Y27164D01*
X125075Y28417D01*
X121737Y29752D01*
X118432Y31168D01*
X115163Y32666D01*
X111932Y34243D01*
X108740Y35899D01*
X105590Y37632D01*
X102484Y39443D01*
X99423Y41329D01*
X96409Y43290D01*
X93444Y45324D01*
X90530Y47430D01*
X87669Y49607D01*
X84861Y51854D01*
X82110Y54169D01*
X79417Y56551D01*
X76782Y58998D01*
X74209Y61509D01*
X71698Y64082D01*
X69251Y66717D01*
X66869Y69410D01*
X64554Y72161D01*
X62307Y74969D01*
X60130Y77830D01*
X58024Y80744D01*
X55990Y83709D01*
X54029Y86723D01*
X52143Y89784D01*
X50332Y92890D01*
X48599Y96040D01*
X46943Y99232D01*
X45366Y102463D01*
X43868Y105732D01*
X42452Y109037D01*
X41117Y112375D01*
X39864Y115746D01*
X38694Y119146D01*
X37608Y122573D01*
X36607Y126027D01*
X35690Y129503D01*
X34860Y133002D01*
X34115Y136519D01*
X33457Y140054D01*
X32886Y143604D01*
X32402Y147167D01*
X32005Y150740D01*
X31697Y154323D01*
X31476Y157912D01*
X31344Y161505D01*
X31300Y165100D01*
X115800Y165100D02*
X127800Y165100D01*
X121800Y170100D02*
X121800Y160100D01*
X232800Y164100D02*
X241800Y164100D01*
D19*
X191008Y192984D02*
X191008Y198120D01*
X191008Y192984D02*
X191010Y192897D01*
X191016Y192809D01*
X191025Y192722D01*
X191039Y192636D01*
X191056Y192550D01*
X191077Y192466D01*
X191102Y192382D01*
X191131Y192299D01*
X191163Y192218D01*
X191198Y192138D01*
X191237Y192060D01*
X191280Y191983D01*
X191326Y191909D01*
X191375Y191837D01*
X191427Y191767D01*
X191483Y191699D01*
X191541Y191634D01*
X191602Y191571D01*
X191666Y191512D01*
X191733Y191455D01*
X191801Y191401D01*
X191873Y191350D01*
X191946Y191303D01*
X192021Y191258D01*
X192099Y191217D01*
X192178Y191180D01*
X192258Y191146D01*
X192340Y191116D01*
X192423Y191089D01*
X192508Y191066D01*
X192593Y191047D01*
X192679Y191032D01*
X192766Y191020D01*
X192853Y191012D01*
X192940Y191008D01*
X193028Y191008D01*
X193115Y191012D01*
X193202Y191020D01*
X193289Y191032D01*
X193375Y191047D01*
X193460Y191066D01*
X193545Y191089D01*
X193628Y191116D01*
X193710Y191146D01*
X193790Y191180D01*
X193869Y191217D01*
X193947Y191258D01*
X194022Y191303D01*
X194095Y191350D01*
X194167Y191401D01*
X194235Y191455D01*
X194302Y191512D01*
X194366Y191571D01*
X194427Y191634D01*
X194485Y191699D01*
X194541Y191767D01*
X194593Y191837D01*
X194642Y191909D01*
X194688Y191983D01*
X194731Y192060D01*
X194770Y192138D01*
X194805Y192218D01*
X194837Y192299D01*
X194866Y192382D01*
X194891Y192466D01*
X194912Y192550D01*
X194929Y192636D01*
X194943Y192722D01*
X194952Y192809D01*
X194958Y192897D01*
X194960Y192984D01*
X194959Y192984D02*
X194959Y198120D01*
X200055Y198120D02*
X200055Y191008D01*
X200055Y194564D02*
X199067Y195157D01*
X199010Y195194D01*
X198955Y195234D01*
X198902Y195277D01*
X198852Y195323D01*
X198804Y195371D01*
X198760Y195423D01*
X198718Y195477D01*
X198680Y195533D01*
X198645Y195591D01*
X198614Y195651D01*
X198586Y195713D01*
X198561Y195777D01*
X198540Y195842D01*
X198523Y195907D01*
X198510Y195974D01*
X198501Y196041D01*
X198496Y196109D01*
X198494Y196177D01*
X198496Y196245D01*
X198503Y196313D01*
X198513Y196380D01*
X198527Y196447D01*
X198545Y196512D01*
X198567Y196577D01*
X198592Y196640D01*
X198621Y196701D01*
X198653Y196761D01*
X198689Y196819D01*
X198728Y196875D01*
X198770Y196928D01*
X198816Y196979D01*
X198864Y197027D01*
X198914Y197072D01*
X198968Y197114D01*
X199023Y197153D01*
X199081Y197189D01*
X199141Y197222D01*
X199202Y197251D01*
X199265Y197276D01*
X199330Y197298D01*
X199395Y197316D01*
X199462Y197330D01*
X199462Y197329D02*
X199568Y197347D01*
X199675Y197360D01*
X199782Y197371D01*
X199889Y197377D01*
X199997Y197380D01*
X200104Y197379D01*
X200212Y197374D01*
X200319Y197366D01*
X200426Y197354D01*
X200532Y197339D01*
X200638Y197319D01*
X200743Y197297D01*
X200847Y197270D01*
X200950Y197240D01*
X201052Y197207D01*
X201153Y197170D01*
X201253Y197129D01*
X201351Y197085D01*
X201447Y197038D01*
X201542Y196988D01*
X201635Y196934D01*
X200055Y194564D02*
X201043Y193971D01*
X201042Y193971D02*
X201099Y193934D01*
X201154Y193894D01*
X201207Y193851D01*
X201257Y193805D01*
X201305Y193757D01*
X201349Y193705D01*
X201391Y193651D01*
X201429Y193595D01*
X201464Y193537D01*
X201495Y193477D01*
X201523Y193415D01*
X201548Y193351D01*
X201569Y193286D01*
X201586Y193221D01*
X201599Y193154D01*
X201608Y193087D01*
X201613Y193019D01*
X201615Y192951D01*
X201613Y192883D01*
X201606Y192815D01*
X201596Y192748D01*
X201582Y192681D01*
X201564Y192616D01*
X201542Y192551D01*
X201517Y192488D01*
X201488Y192427D01*
X201456Y192367D01*
X201420Y192309D01*
X201381Y192253D01*
X201339Y192200D01*
X201293Y192149D01*
X201245Y192101D01*
X201195Y192056D01*
X201141Y192014D01*
X201086Y191975D01*
X201028Y191939D01*
X200968Y191906D01*
X200907Y191877D01*
X200844Y191852D01*
X200779Y191830D01*
X200714Y191812D01*
X200647Y191798D01*
X200648Y191799D02*
X200542Y191781D01*
X200435Y191768D01*
X200328Y191757D01*
X200221Y191751D01*
X200113Y191748D01*
X200006Y191749D01*
X199898Y191754D01*
X199791Y191762D01*
X199684Y191774D01*
X199578Y191789D01*
X199472Y191809D01*
X199367Y191831D01*
X199263Y191858D01*
X199160Y191888D01*
X199058Y191921D01*
X198957Y191958D01*
X198857Y191999D01*
X198759Y192043D01*
X198663Y192090D01*
X198568Y192140D01*
X198475Y192194D01*
X207080Y198120D02*
X207162Y198118D01*
X207244Y198112D01*
X207326Y198103D01*
X207407Y198090D01*
X207487Y198073D01*
X207567Y198052D01*
X207645Y198028D01*
X207722Y198000D01*
X207798Y197969D01*
X207873Y197934D01*
X207945Y197895D01*
X208016Y197854D01*
X208085Y197809D01*
X208151Y197761D01*
X208216Y197710D01*
X208278Y197656D01*
X208337Y197599D01*
X208394Y197540D01*
X208448Y197478D01*
X208499Y197413D01*
X208547Y197347D01*
X208592Y197278D01*
X208633Y197207D01*
X208672Y197135D01*
X208707Y197060D01*
X208738Y196984D01*
X208766Y196907D01*
X208790Y196829D01*
X208811Y196749D01*
X208828Y196669D01*
X208841Y196588D01*
X208850Y196506D01*
X208856Y196424D01*
X208858Y196342D01*
X207080Y198120D02*
X206987Y198118D01*
X206895Y198112D01*
X206803Y198103D01*
X206711Y198090D01*
X206620Y198073D01*
X206530Y198053D01*
X206440Y198029D01*
X206352Y198001D01*
X206264Y197969D01*
X206179Y197935D01*
X206094Y197896D01*
X206012Y197855D01*
X205931Y197810D01*
X205851Y197761D01*
X205774Y197710D01*
X205699Y197656D01*
X205627Y197598D01*
X205557Y197538D01*
X205489Y197474D01*
X205424Y197409D01*
X205361Y197340D01*
X205302Y197269D01*
X205245Y197196D01*
X205191Y197120D01*
X205141Y197043D01*
X205093Y196963D01*
X205049Y196882D01*
X205009Y196798D01*
X204971Y196714D01*
X204937Y196627D01*
X204907Y196540D01*
X208265Y194959D02*
X208326Y195020D01*
X208384Y195083D01*
X208439Y195149D01*
X208492Y195217D01*
X208541Y195288D01*
X208586Y195360D01*
X208629Y195435D01*
X208668Y195511D01*
X208704Y195590D01*
X208736Y195669D01*
X208764Y195750D01*
X208789Y195833D01*
X208810Y195916D01*
X208827Y196000D01*
X208841Y196085D01*
X208850Y196170D01*
X208856Y196256D01*
X208858Y196342D01*
X208265Y194959D02*
X204907Y191008D01*
X208858Y191008D01*
D22*
X490039Y165100D02*
X490044Y165541D01*
X490061Y165981D01*
X490088Y166421D01*
X490125Y166860D01*
X490174Y167299D01*
X490233Y167735D01*
X490303Y168171D01*
X490384Y168604D01*
X490475Y169035D01*
X490577Y169464D01*
X490690Y169890D01*
X490812Y170314D01*
X490946Y170734D01*
X491089Y171151D01*
X491243Y171564D01*
X491406Y171973D01*
X491580Y172379D01*
X491763Y172779D01*
X491957Y173175D01*
X492160Y173567D01*
X492372Y173953D01*
X492594Y174334D01*
X492826Y174709D01*
X493066Y175079D01*
X493315Y175442D01*
X493574Y175799D01*
X493841Y176150D01*
X494116Y176494D01*
X494400Y176832D01*
X494692Y177162D01*
X494992Y177485D01*
X495300Y177800D01*
X495615Y178108D01*
X495938Y178408D01*
X496268Y178700D01*
X496606Y178984D01*
X496950Y179259D01*
X497301Y179526D01*
X497658Y179785D01*
X498021Y180034D01*
X498391Y180274D01*
X498766Y180506D01*
X499147Y180728D01*
X499533Y180940D01*
X499925Y181143D01*
X500321Y181337D01*
X500721Y181520D01*
X501127Y181694D01*
X501536Y181857D01*
X501949Y182011D01*
X502366Y182154D01*
X502786Y182288D01*
X503210Y182410D01*
X503636Y182523D01*
X504065Y182625D01*
X504496Y182716D01*
X504929Y182797D01*
X505365Y182867D01*
X505801Y182926D01*
X506240Y182975D01*
X506679Y183012D01*
X507119Y183039D01*
X507559Y183056D01*
X508000Y183061D01*
X508441Y183056D01*
X508881Y183039D01*
X509321Y183012D01*
X509760Y182975D01*
X510199Y182926D01*
X510635Y182867D01*
X511071Y182797D01*
X511504Y182716D01*
X511935Y182625D01*
X512364Y182523D01*
X512790Y182410D01*
X513214Y182288D01*
X513634Y182154D01*
X514051Y182011D01*
X514464Y181857D01*
X514873Y181694D01*
X515279Y181520D01*
X515679Y181337D01*
X516075Y181143D01*
X516467Y180940D01*
X516853Y180728D01*
X517234Y180506D01*
X517609Y180274D01*
X517979Y180034D01*
X518342Y179785D01*
X518699Y179526D01*
X519050Y179259D01*
X519394Y178984D01*
X519732Y178700D01*
X520062Y178408D01*
X520385Y178108D01*
X520700Y177800D01*
X521008Y177485D01*
X521308Y177162D01*
X521600Y176832D01*
X521884Y176494D01*
X522159Y176150D01*
X522426Y175799D01*
X522685Y175442D01*
X522934Y175079D01*
X523174Y174709D01*
X523406Y174334D01*
X523628Y173953D01*
X523840Y173567D01*
X524043Y173175D01*
X524237Y172779D01*
X524420Y172379D01*
X524594Y171973D01*
X524757Y171564D01*
X524911Y171151D01*
X525054Y170734D01*
X525188Y170314D01*
X525310Y169890D01*
X525423Y169464D01*
X525525Y169035D01*
X525616Y168604D01*
X525697Y168171D01*
X525767Y167735D01*
X525826Y167299D01*
X525875Y166860D01*
X525912Y166421D01*
X525939Y165981D01*
X525956Y165541D01*
X525961Y165100D01*
X525956Y164659D01*
X525939Y164219D01*
X525912Y163779D01*
X525875Y163340D01*
X525826Y162901D01*
X525767Y162465D01*
X525697Y162029D01*
X525616Y161596D01*
X525525Y161165D01*
X525423Y160736D01*
X525310Y160310D01*
X525188Y159886D01*
X525054Y159466D01*
X524911Y159049D01*
X524757Y158636D01*
X524594Y158227D01*
X524420Y157821D01*
X524237Y157421D01*
X524043Y157025D01*
X523840Y156633D01*
X523628Y156247D01*
X523406Y155866D01*
X523174Y155491D01*
X522934Y155121D01*
X522685Y154758D01*
X522426Y154401D01*
X522159Y154050D01*
X521884Y153706D01*
X521600Y153368D01*
X521308Y153038D01*
X521008Y152715D01*
X520700Y152400D01*
X520385Y152092D01*
X520062Y151792D01*
X519732Y151500D01*
X519394Y151216D01*
X519050Y150941D01*
X518699Y150674D01*
X518342Y150415D01*
X517979Y150166D01*
X517609Y149926D01*
X517234Y149694D01*
X516853Y149472D01*
X516467Y149260D01*
X516075Y149057D01*
X515679Y148863D01*
X515279Y148680D01*
X514873Y148506D01*
X514464Y148343D01*
X514051Y148189D01*
X513634Y148046D01*
X513214Y147912D01*
X512790Y147790D01*
X512364Y147677D01*
X511935Y147575D01*
X511504Y147484D01*
X511071Y147403D01*
X510635Y147333D01*
X510199Y147274D01*
X509760Y147225D01*
X509321Y147188D01*
X508881Y147161D01*
X508441Y147144D01*
X508000Y147139D01*
X507559Y147144D01*
X507119Y147161D01*
X506679Y147188D01*
X506240Y147225D01*
X505801Y147274D01*
X505365Y147333D01*
X504929Y147403D01*
X504496Y147484D01*
X504065Y147575D01*
X503636Y147677D01*
X503210Y147790D01*
X502786Y147912D01*
X502366Y148046D01*
X501949Y148189D01*
X501536Y148343D01*
X501127Y148506D01*
X500721Y148680D01*
X500321Y148863D01*
X499925Y149057D01*
X499533Y149260D01*
X499147Y149472D01*
X498766Y149694D01*
X498391Y149926D01*
X498021Y150166D01*
X497658Y150415D01*
X497301Y150674D01*
X496950Y150941D01*
X496606Y151216D01*
X496268Y151500D01*
X495938Y151792D01*
X495615Y152092D01*
X495300Y152400D01*
X494992Y152715D01*
X494692Y153038D01*
X494400Y153368D01*
X494116Y153706D01*
X493841Y154050D01*
X493574Y154401D01*
X493315Y154758D01*
X493066Y155121D01*
X492826Y155491D01*
X492594Y155866D01*
X492372Y156247D01*
X492160Y156633D01*
X491957Y157025D01*
X491763Y157421D01*
X491580Y157821D01*
X491406Y158227D01*
X491243Y158636D01*
X491089Y159049D01*
X490946Y159466D01*
X490812Y159886D01*
X490690Y160310D01*
X490577Y160736D01*
X490475Y161165D01*
X490384Y161596D01*
X490303Y162029D01*
X490233Y162465D01*
X490174Y162901D01*
X490125Y163340D01*
X490088Y163779D01*
X490061Y164219D01*
X490044Y164659D01*
X490039Y165100D01*
X361500Y165100D02*
X361544Y168695D01*
X361676Y172288D01*
X361897Y175877D01*
X362205Y179460D01*
X362602Y183033D01*
X363086Y186596D01*
X363657Y190146D01*
X364315Y193681D01*
X365060Y197198D01*
X365890Y200697D01*
X366807Y204173D01*
X367808Y207627D01*
X368894Y211054D01*
X370064Y214454D01*
X371317Y217825D01*
X372652Y221163D01*
X374068Y224468D01*
X375566Y227737D01*
X377143Y230968D01*
X378799Y234160D01*
X380532Y237310D01*
X382343Y240416D01*
X384229Y243477D01*
X386190Y246491D01*
X388224Y249456D01*
X390330Y252370D01*
X392507Y255231D01*
X394754Y258039D01*
X397069Y260790D01*
X399451Y263483D01*
X401898Y266118D01*
X404409Y268691D01*
X406982Y271202D01*
X409617Y273649D01*
X412310Y276031D01*
X415061Y278346D01*
X417869Y280593D01*
X420730Y282770D01*
X423644Y284876D01*
X426609Y286910D01*
X429623Y288871D01*
X432684Y290757D01*
X435790Y292568D01*
X438940Y294301D01*
X442132Y295957D01*
X445363Y297534D01*
X448632Y299032D01*
X451937Y300448D01*
X455275Y301783D01*
X458646Y303036D01*
X462046Y304206D01*
X465473Y305292D01*
X468927Y306293D01*
X472403Y307210D01*
X475902Y308040D01*
X479419Y308785D01*
X482954Y309443D01*
X486504Y310014D01*
X490067Y310498D01*
X493640Y310895D01*
X497223Y311203D01*
X500812Y311424D01*
X504405Y311556D01*
X508000Y311600D01*
X511595Y311556D01*
X515188Y311424D01*
X518777Y311203D01*
X522360Y310895D01*
X525933Y310498D01*
X529496Y310014D01*
X533046Y309443D01*
X536581Y308785D01*
X540098Y308040D01*
X543597Y307210D01*
X547073Y306293D01*
X550527Y305292D01*
X553954Y304206D01*
X557354Y303036D01*
X560725Y301783D01*
X564063Y300448D01*
X567368Y299032D01*
X570637Y297534D01*
X573868Y295957D01*
X577060Y294301D01*
X580210Y292568D01*
X583316Y290757D01*
X586377Y288871D01*
X589391Y286910D01*
X592356Y284876D01*
X595270Y282770D01*
X598131Y280593D01*
X600939Y278346D01*
X603690Y276031D01*
X606383Y273649D01*
X609018Y271202D01*
X611591Y268691D01*
X614102Y266118D01*
X616549Y263483D01*
X618931Y260790D01*
X621246Y258039D01*
X623493Y255231D01*
X625670Y252370D01*
X627776Y249456D01*
X629810Y246491D01*
X631771Y243477D01*
X633657Y240416D01*
X635468Y237310D01*
X637201Y234160D01*
X638857Y230968D01*
X640434Y227737D01*
X641932Y224468D01*
X643348Y221163D01*
X644683Y217825D01*
X645936Y214454D01*
X647106Y211054D01*
X648192Y207627D01*
X649193Y204173D01*
X650110Y200697D01*
X650940Y197198D01*
X651685Y193681D01*
X652343Y190146D01*
X652914Y186596D01*
X653398Y183033D01*
X653795Y179460D01*
X654103Y175877D01*
X654324Y172288D01*
X654456Y168695D01*
X654500Y165100D01*
X654456Y161505D01*
X654324Y157912D01*
X654103Y154323D01*
X653795Y150740D01*
X653398Y147167D01*
X652914Y143604D01*
X652343Y140054D01*
X651685Y136519D01*
X650940Y133002D01*
X650110Y129503D01*
X649193Y126027D01*
X648192Y122573D01*
X647106Y119146D01*
X645936Y115746D01*
X644683Y112375D01*
X643348Y109037D01*
X641932Y105732D01*
X640434Y102463D01*
X638857Y99232D01*
X637201Y96040D01*
X635468Y92890D01*
X633657Y89784D01*
X631771Y86723D01*
X629810Y83709D01*
X627776Y80744D01*
X625670Y77830D01*
X623493Y74969D01*
X621246Y72161D01*
X618931Y69410D01*
X616549Y66717D01*
X614102Y64082D01*
X611591Y61509D01*
X609018Y58998D01*
X606383Y56551D01*
X603690Y54169D01*
X600939Y51854D01*
X598131Y49607D01*
X595270Y47430D01*
X592356Y45324D01*
X589391Y43290D01*
X586377Y41329D01*
X583316Y39443D01*
X580210Y37632D01*
X577060Y35899D01*
X573868Y34243D01*
X570637Y32666D01*
X567368Y31168D01*
X564063Y29752D01*
X560725Y28417D01*
X557354Y27164D01*
X553954Y25994D01*
X550527Y24908D01*
X547073Y23907D01*
X543597Y22990D01*
X540098Y22160D01*
X536581Y21415D01*
X533046Y20757D01*
X529496Y20186D01*
X525933Y19702D01*
X522360Y19305D01*
X518777Y18997D01*
X515188Y18776D01*
X511595Y18644D01*
X508000Y18600D01*
X504405Y18644D01*
X500812Y18776D01*
X497223Y18997D01*
X493640Y19305D01*
X490067Y19702D01*
X486504Y20186D01*
X482954Y20757D01*
X479419Y21415D01*
X475902Y22160D01*
X472403Y22990D01*
X468927Y23907D01*
X465473Y24908D01*
X462046Y25994D01*
X458646Y27164D01*
X455275Y28417D01*
X451937Y29752D01*
X448632Y31168D01*
X445363Y32666D01*
X442132Y34243D01*
X438940Y35899D01*
X435790Y37632D01*
X432684Y39443D01*
X429623Y41329D01*
X426609Y43290D01*
X423644Y45324D01*
X420730Y47430D01*
X417869Y49607D01*
X415061Y51854D01*
X412310Y54169D01*
X409617Y56551D01*
X406982Y58998D01*
X404409Y61509D01*
X401898Y64082D01*
X399451Y66717D01*
X397069Y69410D01*
X394754Y72161D01*
X392507Y74969D01*
X390330Y77830D01*
X388224Y80744D01*
X386190Y83709D01*
X384229Y86723D01*
X382343Y89784D01*
X380532Y92890D01*
X378799Y96040D01*
X377143Y99232D01*
X375566Y102463D01*
X374068Y105732D01*
X372652Y109037D01*
X371317Y112375D01*
X370064Y115746D01*
X368894Y119146D01*
X367808Y122573D01*
X366807Y126027D01*
X365890Y129503D01*
X365060Y133002D01*
X364315Y136519D01*
X363657Y140054D01*
X363086Y143604D01*
X362602Y147167D01*
X362205Y150740D01*
X361897Y154323D01*
X361676Y157912D01*
X361544Y161505D01*
X361500Y165100D01*
X446000Y165100D02*
X458000Y165100D01*
X452000Y170100D02*
X452000Y160100D01*
X563000Y164100D02*
X572000Y164100D01*
D19*
X521208Y192984D02*
X521208Y198120D01*
X521208Y192984D02*
X521210Y192897D01*
X521216Y192809D01*
X521225Y192722D01*
X521239Y192636D01*
X521256Y192550D01*
X521277Y192466D01*
X521302Y192382D01*
X521331Y192299D01*
X521363Y192218D01*
X521398Y192138D01*
X521437Y192060D01*
X521480Y191983D01*
X521526Y191909D01*
X521575Y191837D01*
X521627Y191767D01*
X521683Y191699D01*
X521741Y191634D01*
X521802Y191571D01*
X521866Y191512D01*
X521933Y191455D01*
X522001Y191401D01*
X522073Y191350D01*
X522146Y191303D01*
X522221Y191258D01*
X522299Y191217D01*
X522378Y191180D01*
X522458Y191146D01*
X522540Y191116D01*
X522623Y191089D01*
X522708Y191066D01*
X522793Y191047D01*
X522879Y191032D01*
X522966Y191020D01*
X523053Y191012D01*
X523140Y191008D01*
X523228Y191008D01*
X523315Y191012D01*
X523402Y191020D01*
X523489Y191032D01*
X523575Y191047D01*
X523660Y191066D01*
X523745Y191089D01*
X523828Y191116D01*
X523910Y191146D01*
X523990Y191180D01*
X524069Y191217D01*
X524147Y191258D01*
X524222Y191303D01*
X524295Y191350D01*
X524367Y191401D01*
X524435Y191455D01*
X524502Y191512D01*
X524566Y191571D01*
X524627Y191634D01*
X524685Y191699D01*
X524741Y191767D01*
X524793Y191837D01*
X524842Y191909D01*
X524888Y191983D01*
X524931Y192060D01*
X524970Y192138D01*
X525005Y192218D01*
X525037Y192299D01*
X525066Y192382D01*
X525091Y192466D01*
X525112Y192550D01*
X525129Y192636D01*
X525143Y192722D01*
X525152Y192809D01*
X525158Y192897D01*
X525160Y192984D01*
X525159Y192984D02*
X525159Y198120D01*
X530255Y198120D02*
X530255Y191008D01*
X530255Y194564D02*
X529267Y195157D01*
X529210Y195194D01*
X529155Y195234D01*
X529102Y195277D01*
X529052Y195323D01*
X529004Y195371D01*
X528960Y195423D01*
X528918Y195477D01*
X528880Y195533D01*
X528845Y195591D01*
X528814Y195651D01*
X528786Y195713D01*
X528761Y195777D01*
X528740Y195842D01*
X528723Y195907D01*
X528710Y195974D01*
X528701Y196041D01*
X528696Y196109D01*
X528694Y196177D01*
X528696Y196245D01*
X528703Y196313D01*
X528713Y196380D01*
X528727Y196447D01*
X528745Y196512D01*
X528767Y196577D01*
X528792Y196640D01*
X528821Y196701D01*
X528853Y196761D01*
X528889Y196819D01*
X528928Y196875D01*
X528970Y196928D01*
X529016Y196979D01*
X529064Y197027D01*
X529114Y197072D01*
X529168Y197114D01*
X529223Y197153D01*
X529281Y197189D01*
X529341Y197222D01*
X529402Y197251D01*
X529465Y197276D01*
X529530Y197298D01*
X529595Y197316D01*
X529662Y197330D01*
X529662Y197329D02*
X529768Y197347D01*
X529875Y197360D01*
X529982Y197371D01*
X530089Y197377D01*
X530197Y197380D01*
X530304Y197379D01*
X530412Y197374D01*
X530519Y197366D01*
X530626Y197354D01*
X530732Y197339D01*
X530838Y197319D01*
X530943Y197297D01*
X531047Y197270D01*
X531150Y197240D01*
X531252Y197207D01*
X531353Y197170D01*
X531453Y197129D01*
X531551Y197085D01*
X531647Y197038D01*
X531742Y196988D01*
X531835Y196934D01*
X530255Y194564D02*
X531243Y193971D01*
X531242Y193971D02*
X531299Y193934D01*
X531354Y193894D01*
X531407Y193851D01*
X531457Y193805D01*
X531505Y193757D01*
X531549Y193705D01*
X531591Y193651D01*
X531629Y193595D01*
X531664Y193537D01*
X531695Y193477D01*
X531723Y193415D01*
X531748Y193351D01*
X531769Y193286D01*
X531786Y193221D01*
X531799Y193154D01*
X531808Y193087D01*
X531813Y193019D01*
X531815Y192951D01*
X531813Y192883D01*
X531806Y192815D01*
X531796Y192748D01*
X531782Y192681D01*
X531764Y192616D01*
X531742Y192551D01*
X531717Y192488D01*
X531688Y192427D01*
X531656Y192367D01*
X531620Y192309D01*
X531581Y192253D01*
X531539Y192200D01*
X531493Y192149D01*
X531445Y192101D01*
X531395Y192056D01*
X531341Y192014D01*
X531286Y191975D01*
X531228Y191939D01*
X531168Y191906D01*
X531107Y191877D01*
X531044Y191852D01*
X530979Y191830D01*
X530914Y191812D01*
X530847Y191798D01*
X530848Y191799D02*
X530742Y191781D01*
X530635Y191768D01*
X530528Y191757D01*
X530421Y191751D01*
X530313Y191748D01*
X530206Y191749D01*
X530098Y191754D01*
X529991Y191762D01*
X529884Y191774D01*
X529778Y191789D01*
X529672Y191809D01*
X529567Y191831D01*
X529463Y191858D01*
X529360Y191888D01*
X529258Y191921D01*
X529157Y191958D01*
X529057Y191999D01*
X528959Y192043D01*
X528863Y192090D01*
X528768Y192140D01*
X528675Y192194D01*
X535107Y191008D02*
X537082Y191008D01*
X537169Y191010D01*
X537257Y191016D01*
X537344Y191025D01*
X537430Y191039D01*
X537516Y191056D01*
X537600Y191077D01*
X537684Y191102D01*
X537767Y191131D01*
X537848Y191163D01*
X537928Y191198D01*
X538006Y191237D01*
X538083Y191280D01*
X538157Y191326D01*
X538229Y191375D01*
X538299Y191427D01*
X538367Y191483D01*
X538432Y191541D01*
X538495Y191602D01*
X538554Y191666D01*
X538611Y191733D01*
X538665Y191801D01*
X538716Y191873D01*
X538763Y191946D01*
X538808Y192021D01*
X538849Y192099D01*
X538886Y192178D01*
X538920Y192258D01*
X538950Y192340D01*
X538977Y192423D01*
X539000Y192508D01*
X539019Y192593D01*
X539034Y192679D01*
X539046Y192766D01*
X539054Y192853D01*
X539058Y192940D01*
X539058Y193028D01*
X539054Y193115D01*
X539046Y193202D01*
X539034Y193289D01*
X539019Y193375D01*
X539000Y193460D01*
X538977Y193545D01*
X538950Y193628D01*
X538920Y193710D01*
X538886Y193790D01*
X538849Y193869D01*
X538808Y193947D01*
X538763Y194022D01*
X538716Y194095D01*
X538665Y194167D01*
X538611Y194235D01*
X538554Y194302D01*
X538495Y194366D01*
X538432Y194427D01*
X538367Y194485D01*
X538299Y194541D01*
X538229Y194593D01*
X538157Y194642D01*
X538083Y194688D01*
X538006Y194731D01*
X537928Y194770D01*
X537848Y194805D01*
X537767Y194837D01*
X537684Y194866D01*
X537600Y194891D01*
X537516Y194912D01*
X537430Y194929D01*
X537344Y194943D01*
X537257Y194952D01*
X537169Y194958D01*
X537082Y194960D01*
X537478Y198120D02*
X535107Y198120D01*
X537478Y198120D02*
X537557Y198118D01*
X537635Y198112D01*
X537713Y198102D01*
X537791Y198089D01*
X537868Y198071D01*
X537944Y198050D01*
X538018Y198025D01*
X538092Y197996D01*
X538164Y197964D01*
X538234Y197928D01*
X538302Y197888D01*
X538368Y197845D01*
X538432Y197799D01*
X538494Y197750D01*
X538553Y197698D01*
X538609Y197643D01*
X538663Y197585D01*
X538713Y197525D01*
X538761Y197462D01*
X538805Y197397D01*
X538846Y197330D01*
X538884Y197261D01*
X538918Y197190D01*
X538949Y197117D01*
X538976Y197043D01*
X538999Y196968D01*
X539018Y196892D01*
X539034Y196814D01*
X539046Y196736D01*
X539054Y196658D01*
X539058Y196579D01*
X539058Y196501D01*
X539054Y196422D01*
X539046Y196344D01*
X539034Y196266D01*
X539018Y196188D01*
X538999Y196112D01*
X538976Y196037D01*
X538949Y195963D01*
X538918Y195890D01*
X538884Y195819D01*
X538846Y195750D01*
X538805Y195683D01*
X538761Y195618D01*
X538713Y195555D01*
X538663Y195495D01*
X538609Y195437D01*
X538553Y195382D01*
X538494Y195330D01*
X538432Y195281D01*
X538368Y195235D01*
X538302Y195192D01*
X538234Y195152D01*
X538164Y195116D01*
X538092Y195084D01*
X538018Y195055D01*
X537944Y195030D01*
X537868Y195009D01*
X537791Y194991D01*
X537713Y194978D01*
X537635Y194968D01*
X537557Y194962D01*
X537478Y194960D01*
X537478Y194959D02*
X535897Y194959D01*
D22*
X820239Y165100D02*
X820244Y165541D01*
X820261Y165981D01*
X820288Y166421D01*
X820325Y166860D01*
X820374Y167299D01*
X820433Y167735D01*
X820503Y168171D01*
X820584Y168604D01*
X820675Y169035D01*
X820777Y169464D01*
X820890Y169890D01*
X821012Y170314D01*
X821146Y170734D01*
X821289Y171151D01*
X821443Y171564D01*
X821606Y171973D01*
X821780Y172379D01*
X821963Y172779D01*
X822157Y173175D01*
X822360Y173567D01*
X822572Y173953D01*
X822794Y174334D01*
X823026Y174709D01*
X823266Y175079D01*
X823515Y175442D01*
X823774Y175799D01*
X824041Y176150D01*
X824316Y176494D01*
X824600Y176832D01*
X824892Y177162D01*
X825192Y177485D01*
X825500Y177800D01*
X825815Y178108D01*
X826138Y178408D01*
X826468Y178700D01*
X826806Y178984D01*
X827150Y179259D01*
X827501Y179526D01*
X827858Y179785D01*
X828221Y180034D01*
X828591Y180274D01*
X828966Y180506D01*
X829347Y180728D01*
X829733Y180940D01*
X830125Y181143D01*
X830521Y181337D01*
X830921Y181520D01*
X831327Y181694D01*
X831736Y181857D01*
X832149Y182011D01*
X832566Y182154D01*
X832986Y182288D01*
X833410Y182410D01*
X833836Y182523D01*
X834265Y182625D01*
X834696Y182716D01*
X835129Y182797D01*
X835565Y182867D01*
X836001Y182926D01*
X836440Y182975D01*
X836879Y183012D01*
X837319Y183039D01*
X837759Y183056D01*
X838200Y183061D01*
X838641Y183056D01*
X839081Y183039D01*
X839521Y183012D01*
X839960Y182975D01*
X840399Y182926D01*
X840835Y182867D01*
X841271Y182797D01*
X841704Y182716D01*
X842135Y182625D01*
X842564Y182523D01*
X842990Y182410D01*
X843414Y182288D01*
X843834Y182154D01*
X844251Y182011D01*
X844664Y181857D01*
X845073Y181694D01*
X845479Y181520D01*
X845879Y181337D01*
X846275Y181143D01*
X846667Y180940D01*
X847053Y180728D01*
X847434Y180506D01*
X847809Y180274D01*
X848179Y180034D01*
X848542Y179785D01*
X848899Y179526D01*
X849250Y179259D01*
X849594Y178984D01*
X849932Y178700D01*
X850262Y178408D01*
X850585Y178108D01*
X850900Y177800D01*
X851208Y177485D01*
X851508Y177162D01*
X851800Y176832D01*
X852084Y176494D01*
X852359Y176150D01*
X852626Y175799D01*
X852885Y175442D01*
X853134Y175079D01*
X853374Y174709D01*
X853606Y174334D01*
X853828Y173953D01*
X854040Y173567D01*
X854243Y173175D01*
X854437Y172779D01*
X854620Y172379D01*
X854794Y171973D01*
X854957Y171564D01*
X855111Y171151D01*
X855254Y170734D01*
X855388Y170314D01*
X855510Y169890D01*
X855623Y169464D01*
X855725Y169035D01*
X855816Y168604D01*
X855897Y168171D01*
X855967Y167735D01*
X856026Y167299D01*
X856075Y166860D01*
X856112Y166421D01*
X856139Y165981D01*
X856156Y165541D01*
X856161Y165100D01*
X856156Y164659D01*
X856139Y164219D01*
X856112Y163779D01*
X856075Y163340D01*
X856026Y162901D01*
X855967Y162465D01*
X855897Y162029D01*
X855816Y161596D01*
X855725Y161165D01*
X855623Y160736D01*
X855510Y160310D01*
X855388Y159886D01*
X855254Y159466D01*
X855111Y159049D01*
X854957Y158636D01*
X854794Y158227D01*
X854620Y157821D01*
X854437Y157421D01*
X854243Y157025D01*
X854040Y156633D01*
X853828Y156247D01*
X853606Y155866D01*
X853374Y155491D01*
X853134Y155121D01*
X852885Y154758D01*
X852626Y154401D01*
X852359Y154050D01*
X852084Y153706D01*
X851800Y153368D01*
X851508Y153038D01*
X851208Y152715D01*
X850900Y152400D01*
X850585Y152092D01*
X850262Y151792D01*
X849932Y151500D01*
X849594Y151216D01*
X849250Y150941D01*
X848899Y150674D01*
X848542Y150415D01*
X848179Y150166D01*
X847809Y149926D01*
X847434Y149694D01*
X847053Y149472D01*
X846667Y149260D01*
X846275Y149057D01*
X845879Y148863D01*
X845479Y148680D01*
X845073Y148506D01*
X844664Y148343D01*
X844251Y148189D01*
X843834Y148046D01*
X843414Y147912D01*
X842990Y147790D01*
X842564Y147677D01*
X842135Y147575D01*
X841704Y147484D01*
X841271Y147403D01*
X840835Y147333D01*
X840399Y147274D01*
X839960Y147225D01*
X839521Y147188D01*
X839081Y147161D01*
X838641Y147144D01*
X838200Y147139D01*
X837759Y147144D01*
X837319Y147161D01*
X836879Y147188D01*
X836440Y147225D01*
X836001Y147274D01*
X835565Y147333D01*
X835129Y147403D01*
X834696Y147484D01*
X834265Y147575D01*
X833836Y147677D01*
X833410Y147790D01*
X832986Y147912D01*
X832566Y148046D01*
X832149Y148189D01*
X831736Y148343D01*
X831327Y148506D01*
X830921Y148680D01*
X830521Y148863D01*
X830125Y149057D01*
X829733Y149260D01*
X829347Y149472D01*
X828966Y149694D01*
X828591Y149926D01*
X828221Y150166D01*
X827858Y150415D01*
X827501Y150674D01*
X827150Y150941D01*
X826806Y151216D01*
X826468Y151500D01*
X826138Y151792D01*
X825815Y152092D01*
X825500Y152400D01*
X825192Y152715D01*
X824892Y153038D01*
X824600Y153368D01*
X824316Y153706D01*
X824041Y154050D01*
X823774Y154401D01*
X823515Y154758D01*
X823266Y155121D01*
X823026Y155491D01*
X822794Y155866D01*
X822572Y156247D01*
X822360Y156633D01*
X822157Y157025D01*
X821963Y157421D01*
X821780Y157821D01*
X821606Y158227D01*
X821443Y158636D01*
X821289Y159049D01*
X821146Y159466D01*
X821012Y159886D01*
X820890Y160310D01*
X820777Y160736D01*
X820675Y161165D01*
X820584Y161596D01*
X820503Y162029D01*
X820433Y162465D01*
X820374Y162901D01*
X820325Y163340D01*
X820288Y163779D01*
X820261Y164219D01*
X820244Y164659D01*
X820239Y165100D01*
X691700Y165100D02*
X691744Y168695D01*
X691876Y172288D01*
X692097Y175877D01*
X692405Y179460D01*
X692802Y183033D01*
X693286Y186596D01*
X693857Y190146D01*
X694515Y193681D01*
X695260Y197198D01*
X696090Y200697D01*
X697007Y204173D01*
X698008Y207627D01*
X699094Y211054D01*
X700264Y214454D01*
X701517Y217825D01*
X702852Y221163D01*
X704268Y224468D01*
X705766Y227737D01*
X707343Y230968D01*
X708999Y234160D01*
X710732Y237310D01*
X712543Y240416D01*
X714429Y243477D01*
X716390Y246491D01*
X718424Y249456D01*
X720530Y252370D01*
X722707Y255231D01*
X724954Y258039D01*
X727269Y260790D01*
X729651Y263483D01*
X732098Y266118D01*
X734609Y268691D01*
X737182Y271202D01*
X739817Y273649D01*
X742510Y276031D01*
X745261Y278346D01*
X748069Y280593D01*
X750930Y282770D01*
X753844Y284876D01*
X756809Y286910D01*
X759823Y288871D01*
X762884Y290757D01*
X765990Y292568D01*
X769140Y294301D01*
X772332Y295957D01*
X775563Y297534D01*
X778832Y299032D01*
X782137Y300448D01*
X785475Y301783D01*
X788846Y303036D01*
X792246Y304206D01*
X795673Y305292D01*
X799127Y306293D01*
X802603Y307210D01*
X806102Y308040D01*
X809619Y308785D01*
X813154Y309443D01*
X816704Y310014D01*
X820267Y310498D01*
X823840Y310895D01*
X827423Y311203D01*
X831012Y311424D01*
X834605Y311556D01*
X838200Y311600D01*
X841795Y311556D01*
X845388Y311424D01*
X848977Y311203D01*
X852560Y310895D01*
X856133Y310498D01*
X859696Y310014D01*
X863246Y309443D01*
X866781Y308785D01*
X870298Y308040D01*
X873797Y307210D01*
X877273Y306293D01*
X880727Y305292D01*
X884154Y304206D01*
X887554Y303036D01*
X890925Y301783D01*
X894263Y300448D01*
X897568Y299032D01*
X900837Y297534D01*
X904068Y295957D01*
X907260Y294301D01*
X910410Y292568D01*
X913516Y290757D01*
X916577Y288871D01*
X919591Y286910D01*
X922556Y284876D01*
X925470Y282770D01*
X928331Y280593D01*
X931139Y278346D01*
X933890Y276031D01*
X936583Y273649D01*
X939218Y271202D01*
X941791Y268691D01*
X944302Y266118D01*
X946749Y263483D01*
X949131Y260790D01*
X951446Y258039D01*
X953693Y255231D01*
X955870Y252370D01*
X957976Y249456D01*
X960010Y246491D01*
X961971Y243477D01*
X963857Y240416D01*
X965668Y237310D01*
X967401Y234160D01*
X969057Y230968D01*
X970634Y227737D01*
X972132Y224468D01*
X973548Y221163D01*
X974883Y217825D01*
X976136Y214454D01*
X977306Y211054D01*
X978392Y207627D01*
X979393Y204173D01*
X980310Y200697D01*
X981140Y197198D01*
X981885Y193681D01*
X982543Y190146D01*
X983114Y186596D01*
X983598Y183033D01*
X983995Y179460D01*
X984303Y175877D01*
X984524Y172288D01*
X984656Y168695D01*
X984700Y165100D01*
X984656Y161505D01*
X984524Y157912D01*
X984303Y154323D01*
X983995Y150740D01*
X983598Y147167D01*
X983114Y143604D01*
X982543Y140054D01*
X981885Y136519D01*
X981140Y133002D01*
X980310Y129503D01*
X979393Y126027D01*
X978392Y122573D01*
X977306Y119146D01*
X976136Y115746D01*
X974883Y112375D01*
X973548Y109037D01*
X972132Y105732D01*
X970634Y102463D01*
X969057Y99232D01*
X967401Y96040D01*
X965668Y92890D01*
X963857Y89784D01*
X961971Y86723D01*
X960010Y83709D01*
X957976Y80744D01*
X955870Y77830D01*
X953693Y74969D01*
X951446Y72161D01*
X949131Y69410D01*
X946749Y66717D01*
X944302Y64082D01*
X941791Y61509D01*
X939218Y58998D01*
X936583Y56551D01*
X933890Y54169D01*
X931139Y51854D01*
X928331Y49607D01*
X925470Y47430D01*
X922556Y45324D01*
X919591Y43290D01*
X916577Y41329D01*
X913516Y39443D01*
X910410Y37632D01*
X907260Y35899D01*
X904068Y34243D01*
X900837Y32666D01*
X897568Y31168D01*
X894263Y29752D01*
X890925Y28417D01*
X887554Y27164D01*
X884154Y25994D01*
X880727Y24908D01*
X877273Y23907D01*
X873797Y22990D01*
X870298Y22160D01*
X866781Y21415D01*
X863246Y20757D01*
X859696Y20186D01*
X856133Y19702D01*
X852560Y19305D01*
X848977Y18997D01*
X845388Y18776D01*
X841795Y18644D01*
X838200Y18600D01*
X834605Y18644D01*
X831012Y18776D01*
X827423Y18997D01*
X823840Y19305D01*
X820267Y19702D01*
X816704Y20186D01*
X813154Y20757D01*
X809619Y21415D01*
X806102Y22160D01*
X802603Y22990D01*
X799127Y23907D01*
X795673Y24908D01*
X792246Y25994D01*
X788846Y27164D01*
X785475Y28417D01*
X782137Y29752D01*
X778832Y31168D01*
X775563Y32666D01*
X772332Y34243D01*
X769140Y35899D01*
X765990Y37632D01*
X762884Y39443D01*
X759823Y41329D01*
X756809Y43290D01*
X753844Y45324D01*
X750930Y47430D01*
X748069Y49607D01*
X745261Y51854D01*
X742510Y54169D01*
X739817Y56551D01*
X737182Y58998D01*
X734609Y61509D01*
X732098Y64082D01*
X729651Y66717D01*
X727269Y69410D01*
X724954Y72161D01*
X722707Y74969D01*
X720530Y77830D01*
X718424Y80744D01*
X716390Y83709D01*
X714429Y86723D01*
X712543Y89784D01*
X710732Y92890D01*
X708999Y96040D01*
X707343Y99232D01*
X705766Y102463D01*
X704268Y105732D01*
X702852Y109037D01*
X701517Y112375D01*
X700264Y115746D01*
X699094Y119146D01*
X698008Y122573D01*
X697007Y126027D01*
X696090Y129503D01*
X695260Y133002D01*
X694515Y136519D01*
X693857Y140054D01*
X693286Y143604D01*
X692802Y147167D01*
X692405Y150740D01*
X692097Y154323D01*
X691876Y157912D01*
X691744Y161505D01*
X691700Y165100D01*
X776200Y165100D02*
X788200Y165100D01*
X782200Y170100D02*
X782200Y160100D01*
X893200Y164100D02*
X902200Y164100D01*
D19*
X851408Y192984D02*
X851408Y198120D01*
X851408Y192984D02*
X851410Y192897D01*
X851416Y192809D01*
X851425Y192722D01*
X851439Y192636D01*
X851456Y192550D01*
X851477Y192466D01*
X851502Y192382D01*
X851531Y192299D01*
X851563Y192218D01*
X851598Y192138D01*
X851637Y192060D01*
X851680Y191983D01*
X851726Y191909D01*
X851775Y191837D01*
X851827Y191767D01*
X851883Y191699D01*
X851941Y191634D01*
X852002Y191571D01*
X852066Y191512D01*
X852133Y191455D01*
X852201Y191401D01*
X852273Y191350D01*
X852346Y191303D01*
X852421Y191258D01*
X852499Y191217D01*
X852578Y191180D01*
X852658Y191146D01*
X852740Y191116D01*
X852823Y191089D01*
X852908Y191066D01*
X852993Y191047D01*
X853079Y191032D01*
X853166Y191020D01*
X853253Y191012D01*
X853340Y191008D01*
X853428Y191008D01*
X853515Y191012D01*
X853602Y191020D01*
X853689Y191032D01*
X853775Y191047D01*
X853860Y191066D01*
X853945Y191089D01*
X854028Y191116D01*
X854110Y191146D01*
X854190Y191180D01*
X854269Y191217D01*
X854347Y191258D01*
X854422Y191303D01*
X854495Y191350D01*
X854567Y191401D01*
X854635Y191455D01*
X854702Y191512D01*
X854766Y191571D01*
X854827Y191634D01*
X854885Y191699D01*
X854941Y191767D01*
X854993Y191837D01*
X855042Y191909D01*
X855088Y191983D01*
X855131Y192060D01*
X855170Y192138D01*
X855205Y192218D01*
X855237Y192299D01*
X855266Y192382D01*
X855291Y192466D01*
X855312Y192550D01*
X855329Y192636D01*
X855343Y192722D01*
X855352Y192809D01*
X855358Y192897D01*
X855360Y192984D01*
X855359Y192984D02*
X855359Y198120D01*
X860455Y198120D02*
X860455Y191008D01*
X860455Y194564D02*
X859467Y195157D01*
X859410Y195194D01*
X859355Y195234D01*
X859302Y195277D01*
X859252Y195323D01*
X859204Y195371D01*
X859160Y195423D01*
X859118Y195477D01*
X859080Y195533D01*
X859045Y195591D01*
X859014Y195651D01*
X858986Y195713D01*
X858961Y195777D01*
X858940Y195842D01*
X858923Y195907D01*
X858910Y195974D01*
X858901Y196041D01*
X858896Y196109D01*
X858894Y196177D01*
X858896Y196245D01*
X858903Y196313D01*
X858913Y196380D01*
X858927Y196447D01*
X858945Y196512D01*
X858967Y196577D01*
X858992Y196640D01*
X859021Y196701D01*
X859053Y196761D01*
X859089Y196819D01*
X859128Y196875D01*
X859170Y196928D01*
X859216Y196979D01*
X859264Y197027D01*
X859314Y197072D01*
X859368Y197114D01*
X859423Y197153D01*
X859481Y197189D01*
X859541Y197222D01*
X859602Y197251D01*
X859665Y197276D01*
X859730Y197298D01*
X859795Y197316D01*
X859862Y197330D01*
X859862Y197329D02*
X859968Y197347D01*
X860075Y197360D01*
X860182Y197371D01*
X860289Y197377D01*
X860397Y197380D01*
X860504Y197379D01*
X860612Y197374D01*
X860719Y197366D01*
X860826Y197354D01*
X860932Y197339D01*
X861038Y197319D01*
X861143Y197297D01*
X861247Y197270D01*
X861350Y197240D01*
X861452Y197207D01*
X861553Y197170D01*
X861653Y197129D01*
X861751Y197085D01*
X861847Y197038D01*
X861942Y196988D01*
X862035Y196934D01*
X860455Y194564D02*
X861443Y193971D01*
X861442Y193971D02*
X861499Y193934D01*
X861554Y193894D01*
X861607Y193851D01*
X861657Y193805D01*
X861705Y193757D01*
X861749Y193705D01*
X861791Y193651D01*
X861829Y193595D01*
X861864Y193537D01*
X861895Y193477D01*
X861923Y193415D01*
X861948Y193351D01*
X861969Y193286D01*
X861986Y193221D01*
X861999Y193154D01*
X862008Y193087D01*
X862013Y193019D01*
X862015Y192951D01*
X862013Y192883D01*
X862006Y192815D01*
X861996Y192748D01*
X861982Y192681D01*
X861964Y192616D01*
X861942Y192551D01*
X861917Y192488D01*
X861888Y192427D01*
X861856Y192367D01*
X861820Y192309D01*
X861781Y192253D01*
X861739Y192200D01*
X861693Y192149D01*
X861645Y192101D01*
X861595Y192056D01*
X861541Y192014D01*
X861486Y191975D01*
X861428Y191939D01*
X861368Y191906D01*
X861307Y191877D01*
X861244Y191852D01*
X861179Y191830D01*
X861114Y191812D01*
X861047Y191798D01*
X861048Y191799D02*
X860942Y191781D01*
X860835Y191768D01*
X860728Y191757D01*
X860621Y191751D01*
X860513Y191748D01*
X860406Y191749D01*
X860298Y191754D01*
X860191Y191762D01*
X860084Y191774D01*
X859978Y191789D01*
X859872Y191809D01*
X859767Y191831D01*
X859663Y191858D01*
X859560Y191888D01*
X859458Y191921D01*
X859357Y191958D01*
X859257Y191999D01*
X859159Y192043D01*
X859063Y192090D01*
X858968Y192140D01*
X858875Y192194D01*
X865307Y192588D02*
X866887Y198120D01*
X865307Y192588D02*
X869258Y192588D01*
X868073Y194169D02*
X868073Y191008D01*
M02*
